<mxfile host="app.diagrams.net" agent="Mozilla/5.0 (Windows NT 10.0; Win64; x64) AppleWebKit/537.36 (KHTML, like Gecko) Chrome/134.0.0.0 Safari/537.36" version="26.1.0">
  <diagram name="Page-1" id="c4acf3e9-155e-7222-9cf6-157b1a14988f">
    <mxGraphModel dx="1034" dy="492" grid="1" gridSize="10" guides="1" tooltips="1" connect="1" arrows="1" fold="1" page="1" pageScale="1" pageWidth="850" pageHeight="1100" background="none" math="0" shadow="0">
      <root>
        <mxCell id="0" />
        <mxCell id="1" parent="0" />
        <mxCell id="AkSAlw664P2l1NgukmYR-1" value="" style="shape=image;verticalLabelPosition=bottom;labelBackgroundColor=default;verticalAlign=top;aspect=fixed;imageAspect=0;image=data:image/png,iVBORw0KGgoAAAANSUhEUgAAA78AAAKDCAYAAADSL734AAAAAXNSR0IArs4c6QAAAARnQU1BAACxjwv8YQUAAAAJcEhZcwAADsMAAA7DAcdvqGQAALVKSURBVHhe7N1/dNTVgf//J5jqoFEnLdgJgjIK1knJtknByuxmu0w+2JJUzpqs7jGzsl82MWcl0fMppJy2QdvSYHtosOdjpe4Bpj2rm/A55pNhLWVSpQytcRMqmKHFMijIoKAzamwGifIGAvP9YybJ5J0Ewi9JZl6Pc3Jg7r3vO+/3zJ1JXnPv+z3jDh1+J4aIiIiIiIhIChsXi8UUfkVERERERCSljTcXiIiIiIiIiKQahV8RERERERFJeQq/IiIiIiIikvIUfkVERERERCTlKfyKiIiIiIhIylP4FRERERERkZSn8CsiIiIiIiIpT9/zKyIil1RXVxd//vOfOXnyJJ988om5WsYwwzCwWCzYbDZmz57NuHHjzE1ERERGDYVfERG5ZP7617/yP//zP1zx2RuYkH0TxxMLjj4zTr96xrqe2DhigCXWw9G332Tcxx/xzW9+09xMRERk1FD4FRGRS+b3v/89p7I+z8lrP2uukhQTezfEJEsGs2bNMleJiIiMCjrnV0RELon333+f9zo/VPBNE1dNnkYoFDIXi4iIjBoKvyIickmcOnWKjMzrzMWSok4wjtj4K8zFIiIio4bCr4iIXBJXX301p0+fNhdLCtMFzUREZDRT+BUREREREZGUp/ArIiIiIiIiKU/hV0RERERERFKewq+IiEivt56mcv7TRJKKdtTYWLU1qUBERETGJIVfERERERERSXkKvyIiIiO0o8bG/Ft7fxazA4isK2B+Tf/U8I4aG5Xr3h62nLeeprKvj0QZvbPOBf11phloERERuTAKvyIiIsne+CGLksLpYxv7q2bXR2h5M/6z4h4v69a9je3BHzB3YzM7ANjKto0lPPjgTcOWc/NDrE300eL/PvzkJ4k2wBu5PPhmhJY3X6GCH/KMlluLiIhcNAq/IiIiyW77Pr/qDadvRlhxT39VZF3BEKG4kIXf2c22rRBZ9wP2f+c7zE6Uz73HO0T5Vlb1hmvXDznU3z3clstUAG7ipi8mV4iIiMiFUvgVEREZibee5jFvWV8w/tV3ZvRV2e4qY3/9Yp7x5sZndxNmP/z9QeU7atywtjdcNzC3r7WIiIhcSgq/IiIiI3FzMV+nf0n0op/sS6p7iAe/6GXbF0sTs7vDl8+eX8K2yt5l1W62JbcXERGRS2ZcLBaLmQtFREQu1JEjR3jxf7Zz7e1fNleloLdpnu+G/2il9GZzXfqI/M8W/r8H/sVcLCIiMipo5ldEROQCRda5Wf/FH6R18BURERntFH5FREQukO3BVlrqC83FIiIiMooo/IqIiIiIiEjKU/gVERERERGRlKfwKyIiIiIiIilPV3sWEZFL4siRI3hbXsAy5VZzlaSoT/a/Rvn/96/mYhERkVFB4VdERC6JI0eO0OL/A5YrM8xVkoJiMThx7BP++d5/MleJiIiMCgq/IiJySRw5coSdO3dSWKirIKeL5557jvvuu89cLCIiMironF8RERERERFJeQq/IiIiIiIikvIUfkVERERERCTlKfyKiMhlFMDzIx8Rc/EZBVk5J5uKjYa5AvavJmehD/BTU7SGkLk+WU+QxoWF5DiyycnNwbnYR4QIvh95CJjbAmypofjpM/YoIiIio5jCr4iIXDbGXh+eXzTQ3OQlcNgguCWQCMIGwZ1BDBJl3UH8TYm6l9fQtqCGrme99MXfaBBfkxfvtmCiIAf3t1xkA3QH8W8J9rdNiPyqmoa5zewJhtmzew/+FU6sh9to+IWHhiYv/r3RgfftcLN0bjYQIbAlQHCnD2+Tn1Bvx52B+D60+PDtPLc4LyIiIpeewq+IiFw2lil2sq128guc2CeG8S2ppwOAML4nfYQJ41tSRMkKP9HENv7GEEUPVFGKh4YI0NNO9ZzlhB1O8mzQBUAH9Ut8hAE6/az+mT/+/yS23Dw6Hq9hTZOfYKeBZaIVy0Q7dms2+QVO8qd0DbzvQD3Vm8LxvhfU0PCBnbxML6XL2uP7UFCPMdtJXo+X8ifjRyEiIiKjh8KviIh8qkJPF5M9NZvsojWEMq1YMrKw2WxYLeaWvVwsX1VFyb152Hr8ePc7cWZEcc234GmKwME2uhbWUT7Tht3hIMu8+bQqNvuqsJvL76wntGMpDoI0POIi+y4PEYuVrAwLVpsNayYD7zt52+lFlM93YJ9fhCPaldiH5ZRMG2YfRERE5LJT+BURkU+V/aHNhA+FCScC6YRhQ+9gRtMagl92EGpto83qJGtjAyEgEu6dFx5Cj0G007zoGYxoFIvVgeveKuoaPVSH2+OzzuewP30yIHIoMbfcM/i+RERE5PJT+BURkcvIRZGjgerKCjy77BSVBagpqqB0gRvPYXNbA28TlD9WQsm9JZTcW8vS2xvwGCWUBNw4y9wULxriIlcH1+CcO7g8uqmc7BmFuCsrcLvcdDyylCLsFJWEqCurYGXLB6YtzmBaObWWGrLtOTiXNGNkmBuIiIjI5TYuFovFzIUiIiIX6siRI+zcuZPCwkJz1RkZ0ShYrec8AWtEDSzDr50e1vnen1nv/Ueb3JRHV9P84ICF0mnhueee47777jMXi4iIjAqa+RURkVHFcp5B9HyCLxdwfwMZBH5VTUVlBXWRajyL0i/4ioiIjHYKvyIiIhfMwpxvrWf92vXUPzwHq5Y9i4iIjDoKvyIiIiIiIpLyFH5FREREREQk5Sn8ioiIiIiISMpT+BUREREREZGUp/ArIiIiIiIiKU/hV0RERERERFKewq+IiIiIiIikPIVfERERERERSXkKvyIiIiIiIpLyFH5FREREREQk5Sn8iojI6LelhuKnQ6bCEKtz3fiA0NPF1GwBNrnJ+am53QjsX03OQp+5dHhD3c9QZSIiIjJqKPyKiMhlFdnuxdvkxbsthJEoi+7y4W3y4mvxETgMONwsnZsNRAhsCRKNBPBt2U9Pon323KW4HUmdAtHXfPj3G4BBcIufYPfA+nijIL4mL95twf6yzkCiLLE/hwP49yb27HAgvj8ARhC/ab/7GKF4XUuAaO9OioiIyGWl8CsiIpeRQZfFgbPAif3lUtwbDHi5GucTBnkFebCxnPoAEKinelMY6KC+qJSqZ4MDAmd4U3W8XUJ0+3LcT0D+dAsQxv+z1fg7kzYA6Gmnes5ywg4neTbo6i0ra8Ay24ljfw3udZGk+47vR+/9hLYFYHYe1pYKaraZ+l2wBmY7ycND6YqkYC0iIiKXjcKviIh8qkJPF5M9NZvsojWEMIi2rsZ9TwlVjSGCh8OE2rtwf68Eu82OY0aWeXO4vZy6b5dRMm86GeY6gMBySp/Mp+GXRVgBsFPl20zVNFO7g210LayjfKYNu8NBVm/ZvCpc02w4HizHsmEzEdNmvezzy3BNs+P6NxddO5OWOx9sI9hj0P6sh8adBnQngrOIiIhcVgq/IiLyqbI/tJnwoTBhXxX2nfUsPVTO1vY22lYVxRtkRAgn8qJxHkuGu2xuqjKWU7Up2ldmdEaH7CsS7m8DQAYYXYmy7ihRWxa2gS0GC4eJJKfwDLDOclP7aC21j65n6xOupEoRERG5XBR+RUTk8rndSc6mpbgr3bhX+AGwL6rFsiybW3Kd1HgNJgw5vTu8rGwHJb/0U/ysm5WvGUCINXOdrDloaji9hJKAG2eZm+JFawgBTCunvLOcwrIK3AuacT1WAnNLcTzpxl1WTPGK9r7Ng7+spqLSTeEyg6WL7P39TiunqqeK/AUVVJQVk78sflwiIiJyeY2LxWIxc6GIiMiFOnLkCDt37qSwsNBcNVCPQdSwYM003bZE8S4sp+uJZsrPOv16/oyogcVqMZVFIdOKpTd4m/cxuZ3VysCtE3oMjB4LliErU9Nzzz3HfffdZy4WEREZFTTzKyIil1eGKVQaATxLKqhYXEd4seeSBl9gUPCNlyUFX4bYxwTLcMGX+DbpFHxFRERGO4VfEREZXTLnsHTtetavrafq7+KXrBIRERG5UAq/IiIiIiIikvIUfkVERERERCTlKfyKiIiIiIhIylP4FRERERERkZSn8CsiIiIiIiIpT+FXREREREREUp7Cr4iIiIiIiKQ8hV8RERERERFJeQq/IiIiIiIikvIUfkVERERERCTlKfyKiEjq2FJD8dMhc2lCAM+PfETMxSIiIpIWFH5FROSyiexsJ9KTuHE4gH+/AdEgviYv3iYfgc5EXWcgXtYSINoDYBDc4ifY3d8XAA43S+dmAxECWwIEd/rwNvkJGWDs9eH5RQPNTV4Ch03biYiISMpT+BURkcvGuq+eqiYDAP/jywlaLNAN2bOdOGdHqZ+/nCDtVN/nI7vASZ4lRLATIIz/Z6vx94bjXoF6qjeFgQ7qF9TQ8IGdvEwvpcvasUyxk221k1/gxD7RtJ2IiIikPIVfERH5VIWeLiZ7ajbZRWsI31tF9rMeIt2NrOl0Uz4FIEjDI25KHqjHvytECBuOkx6qljyFjzzybAB2qnybqZpm7j3J9CLK5zuwzy/CEe2CTCuWjCxsNhtWi7mxiIiIpDqFXxER+VTZH9pM+FCYsK8Ke4aLqlleli5uIPuhMiwYNC724HhmK22tzdTcTjzoth7A/4ty7E3FVLfE+zE6oxi9S6ZHaIJCr4iISNpS+BURkcvKUVlCqDWPqrkAFubM7WJ1WQUVZdWs2Q/gp2Z2MdXLVrJmbx6uXIAQa+Y6WXPQ3NuZuChyNFBdWYFnl7lOREREUt24WCwWMxeKiIhcqCNHjrBz504KCwvNVQMYm9yUHlzN5odt/WXRKFitJE/UGlEDi9Yrj2rPPfcc9913n7lYRERkVNDMr4iIXEYGgYP5LF/UH3wBLKbgGy8zl4iIiIiMnMKviIhcRhbmPLyUOZnmchEREZGLS+FXREREREREUp7O+RURkUviyJEj/O53v+NLX/qSuUpS1I4dO7j//vvNxSIiIqOCwq+IiFwSveH3+uuvN1dJivrggw8UfkVEZNRS+BURkUtipFd7ltShqz2LiMhopnN+RUREREREJOUp/IqIiIiIiEjKU/gVERERERGRlKfwKyIiY8suDytbIvH/H1xDca4TZ4ETZ1EFa16OmltfMqGfFeLeGL+/yNOFlG44232HWFNUg99cnBBpWYlnl7lURERELhaFXxERuTz2r8b909DAss4AviYv3hYfvp2JgGuE8Dd58bYEiPYYBFs8PPVsM96mAJEeA+vCBtpa22j7dT3Za51Uv2zqa1sII94RoW1evE1e/PvjJZHt8dv9bSC6y4e3yYuvxUfgcGIX9vvjZbsSAbe7kZrWctbcYwXA9lADrmeX4++JV0d2evu27ZeN61tucgBjr5/2vUH8fX1GaHv2KTyNXrxbgn37IiIiIhePwq+IiIwOPe1UF9RjzHaS1+Ol/MmOeNmCNTDbSR4eSleEsE/LJmtaPs4CO/HomZBhpeR7bvy/9MW3K2vAMtuJY38N7nURIuvcLI/k4SxwEA0GAYMuiwNngRP7y6W4NxjwcjXOJwzyCvJgYzn1AeDlaorXEi9bW8ry14BWP9xbknT/NkrvCePdHr+1p7GKhmD/rsWF8S2ppwMIb6rG/XgbWbMdhJaU4olYsU/LIjvXiTPPjsW8qYiIiFwwhV8REfl0bV8ZX6Z8fz2+J0txFjip2BCBg210LVxOyTQbdoeDLICDbQR7DNqf9dC404DuMJZMC2TZsNmsg0NihgV64tt1zavCNc2G48FyLBs2c3xKFu2rqql/Noh9Th5gEG1djfueEqoaQwQPhwm1d+H+Xgl2mx3HjCwAQu1BMNppXNdIwAAjDKHXjpGfN/DebTYLwWB8ttr1RJj6eQOqB5lzbzl50xwUzbcR7bZgzQKL1YZt4qCjEhERkYtA4VdERD5dd9bGlylvqKHokWbaWttYf78NMiByKBxv05NY+JsB1lluah+tpfbR9Wx9wgUZEwaH3oRgUwOO+S7IAKOrd4lylKgti5vnr+fAjmaWzw9Tc/dqQjvrWXqonK3tbbStKoq3zYgQTuyCkVjCTIaVvLLa+D78civ182CC1SDcmahPYrPZADCiEaLnunY5Y7ijEhERkYtB4VdERC6PDAvZmUm3p5VTa6kh256Dc0kzRka8rKqnivwFFVSUFZO/zA8FRTgaq6mo9BAAIo01VJQVkm/PZ3lmAw33W2BaOeWd5RSWVeBe0IzrsRJCT5dSuLCamse9UOTCfruTnE1LcVe6ca+IX4bKvqgWy7Jsbsl1UuM1mJAB9kVV8HA+xZUVuIvyqdkCtjkOgi8OXNccaI+S74j/3/9INlVbBlSflX1eKaFVbip+5CNxtrOIiIhcRONisVjMXCgiInKhjhw5ws6dOyksLDRXDcuIGlisFqJNbsqjq2l+MD6TSo+B0WPBco6To0Y0CplWLBl9BUSxYu3tp8cgaliw9obw3tuWKN6F5XQ90Ux5YhfoNjAyLYlZ5wiekqVk/bKBEisQ9eJ+xGDNM2UDz0NOM8899xz33XefuVhERGRU0MyviIiMEgaBX1VTUVlBXaQaz6Le1BmfJT7X4AtgsSYF33hBf/Al3m9f8AUwAniWVFCxuI7wYk9/8AXoC74ANspXFdO2IYCBQWBDiPIn0zv4ioiIjHaa+RURkUvifGZ+ZWzTzK+IiIxmmvkVERERERGRlKfwKyIiIiIiIilP4VdERERERERSnsKviIiIiIiIpDyFXxEREREREUl5Cr8iIiIiIiKS8hR+RUREREREJOUp/IqIiIiIiEjKU/gVERERERGRlKfwKyIiIiIiIilP4VdERMaWXR5WtkTi/z+4huJcJ86C+E/FhkT5OQj9NAf3JqAnSOPCQnIc2eTk5uBc7GOo3vraj5gPd+5qQuZiAEKsznXjMxf3CbH6LjfeKBD1U33XcgI95jaDBZ91U+jIIduRQ05BNb4IRFpW4tllbgngp6ZozTD7JyIikjoUfkVE5PLYvxr3T02RqzOAr8mLt8WHb2ciehoh/E1evC0Boj0GwRYPTz3bjLcpQKTHwLqwgbbWNtpa21h/vw16ogRavHib/ISMRL8D+ogXRV/z4W3y4t8Xvx35VTUNc5vZEwyzZ/ce/CucWGFAf8HuRH/dQfxNXny7ookCiO5K9Lc/cac9Edp77xMAg+CWQCJQGwR3BundvV7mPowNNbQtWkOJFbC6eOq7UZY/3RvJDYJbkvapV8RD9QYXzcE9hIN72LOlDmdmhLZnn8LT6MW7JUh0r5/AYYPgNi+Bwzm4v+UiG4PglnaCe/14m3wEOnvvpvex8+HbMnifRURExgqFXxERGR162qkuqMeY7SSvx0v5kx3xsgVrYLaTPDyUrghhn5ZN1rR8nAV2rEA0EA+M3qYAESJ47iunY6oTpyNIxcJGjEF9BOHlapyPhXEU5JFNFwC23Dw6Hq9hTZOfYKeBZaIVCxE8RUX4JjlxOgzaWuNhvb2ljazZDkJLSvFEILKulPIddpwFDoKL3TR2R/AUlbB5Yh7OqZbEPYTxLamno/f/T/oIJx3+4D7AvwVK77b2N5rrxr5tcyJAh/H/bDX+3pDay5ZDXmAlNU978b8WxciwYs20Yp+WRXauE2eena5N1RTdvzyxbQf1S3yECeNb4qauPYs8R4iaMk/88Vzgpt3uxDk1SN2SgfssIiIylij8iojIp2v7yvgy5fvr8T1Z2r9c+WAbXQuXUzLNht3hIAvgYBvBHoP2Zz007jSgO4wl0wJZNmw2KxbAOi0/sezZjpUO/EELkY0ePBtDWDO6CA/RR6i9C/fj5ThsdhwzsuL7dWc9oR1LcRCk4REX2Xd5iHT78U6soXaWDdvMIsrn2wGYc285edMcFM23Ee2GjtYglogXzzovoUwLXZ0d+CfWUDfXjm2mg/hWZza4jxBBI5+8zORWNuzRQGKJsp0q32aqpiXXA8yhPtTB0tsh+FwVLnshnsMWrFlgsdqwTbQA4FpWT9W9JeRNGbite1Ee9plFFNmiHCN+HPHjH9lxiIiIjFYKvyIi8um6sza+THlDDUWPNPcvV86AyKHEvGJPYnFtBlhnual9tJbaR9ez9QkXZEwgHt8SsmzYbP1heMIMF1WP1lL7aD3NjVXYh+qDCGHTjKkRjWKxOnDdW0Vdo4fqcDsdFivWSHjIc38HyLDjeriW2kdrqfc2xANppOvs2yUb1McErEY4sWQ6yRQ7tsR/jc4ohvkc4O4o0QwrjrklVK1owLM4TPtuIGPAozZiE3qPv/c5ERERGaMUfkVE5PLIsJCdPKs5rZxaSw3Z9hycS5oxMuJlVT1V5C+ooKKsmPxlfigowtFYTUWlh0DS5nFFLL3bh8vlpqKyGOcCD6Eh+rDfU0LHIifusmLca+PzqNFN5WTPKMRdWYHb5abjkaUUZRSx/O4Giori27rXDX1ZqKJlJfjmxbctLijGc9CFe/pKihZUULqgBj8AdorKAtQUVVC6wI3n8Nn6sOGcGWTza0mNuttpo3cGNsSauU7WHEyqB+j2UT71FgrLKqgoK8S9YylL54F9XimhVW4qfuTjA9Mmwyti6f1+XFNzyCmrJ3B++VlERGRUGBeLxWLmQhERkQt15MgRdu7cSWFhoblqWEbUwGK1EG1yUx5dTfODiTnOHgOjx4JlxOHLwOi2YEkO1+Y+egyihgXrgGXF8RlgrPFZ5HNldBvxZdm9t4foa6iyZAP6OOyh9HtZeJ4pwQoEf1xKw7xm6maZtxqCESWKFetwdzRCvfvLayspXuti65NzzE36PPfcc9x3333mYhERkVFBM78iIjJKGAR+VU1FZQV1kWo8i3oX98ZniUcefAFMwZch+sgYHHwBLGcIpmeTHHwZpq+hypIN6GNKOfXz22jYacBhL94pdSMLvgCWCw++AOGWOqorK6h+zsH6VcMHXxERkdFOM78iInJJnM/Mr4xtmvkVEZHRTDO/IiIiIiIikvIUfkVERERERCTlKfyKiIiIiIhIylP4FRERERERkZSn8CsiIiIiIiIpT+FXREREREREUp7Cr4iIiIiIiKQ8hV8RERERERFJeQq/IiJySXzyySdcccUV5mIRERGRy0LhV0RELgmbzcZ7773H6dOnzVWSgo4ePcr1119vLhYRERk1FH5FROSSGDduHBMnTqStrc1clbLSNeifOnWKF198kRtvvNFcJSIiMmqMi8ViMXOhiIjIxdLe3s6HH37IbbfdxpVXXmmuThl//vOf+fDDD/na177G+PHp8dnyyZMn+fjjj9mzZw9f/vKXycnJMTcREREZNRR+RUTkknv//ffp7u7mxIkT5qqUEIlE+Otf/8rkyZP54IMPmDFjhrlJSjp69ChXXnkl06dP55prrjFXi4iIjCoKvyIiIhfgr3/9Ky0tLdx1111MmjSJLVu2MHnyZL74xS+am4qIiMhllB7rskRERC6B06dP097ezh133MGkSZMAuPPOO/nLX/7Cu+++a24uIiIil5HCr4iIyHnavn07kyZNGrDM+dprr2XOnDm0t7fzySefDGgvIiIil4/Cr4iIyHnYs2cP3d3d3HHHHeYqpk6dyowZM9i+fbu5SkRERC4TnfMrIiJyjl5//XVeeeUV/v7v//6MF3rauXMnV199NX//939vrhIREZFPmcKviIjIOXrnnXdoa2vj2muv7Sv78MMP6ezs5Atf+EJf2alTp7BYLBQWFvaViYiIyOWh8CsiInIRtLa28tJLL1FbW2uuEhERkVFA5/yKiIiIiIhIylP4FRERERERkZSn8CsiIiIiIiIpT+FXREREREREUp7Cr4iIiIiIiKQ8hV8RERERERFJeQq/IiIiIiIikvIUfkVERERERCTlKfyKiIiIiIhIylP4FRERERERkZSn8CsiIiIiIiIpT+FXREREREREUp7Cr4iIiIiIiKQ8hV8RERERERFJeQq/IiIiIiIikvIUfkVERERERCTlKfyKiIiIiIhIylP4FRERERERkZSn8CsiIiIiIiIpT+FXREREREREUp7Cr4iIiIiIiKQ8hV8RERERERFJeQq/IiIiIiIikvIUfkVERERERCTlKfyKiIiIiIhIylP4FRERERERkZQ3LhaLxcyFIunonXfe4ejRo+ZiEZERefXVV9m1axc//elP2bt3r7laROSyue6665g8ebK5WCTtKPxK2vvtb3/L73//e9577z0yMzO54oorzE1ERM7qnXfeYdq0afz0pz/l//yf/0MoFDI3ERH51J04cYJPPvmEyZMn8/d///d84xvfMDcRSRsKv5LWfv/737Nt2zaKior46le/aq4WERmx1tZWXnrpJWpra81VIiKX3R/+8AdeeOEFvv71r/O1r33NXC2SFnTOr6S17du3841vfEPBV0RERFLa1772NebPn8+OHTvMVSJpQ+FX0tZbb71Fd3c3c+bMMVeJiIiIpJyCggI+/PBDPvzwQ3OVSFpQ+JW0lZmZqXPyREREJK3s27cPi8ViLhZJCwq/IiIiIiIikvIUfkVERERERCTlKfyKiIiIiIhIylP4FRERERERkZSn7/mVAd555x3effddPvroI1J9aHz00UesW7eOpUuXmqtSzhVXXEFWVhY33ngjkyZNMleLyEWg7/kVkbHgn/7pn/jP//xPrrnmGnOVSMpT+BUA3n33XXbu3MmJcVcwyT6D2NWZxGJwatx4roidNjeXMeLUuHFkxGKM4zSnjh7h3b2vYZv4OWbPns31119vbi4iF0DhV0TGAoVfSWcKv8Ibb7zBtm3bmFlYxNHxV5qrJcVcc+wj3gr8kcLCQrKzs83VInKeFH5FZCxQ+JV0pnN+09y7776L3+9n5jfuUfBNEx9PuI5b7vwav//97/nkk0/M1SIiIiIiKUnhN829+uqr5P6vIo6e0gKAdPLR+CuxOXIJBALmKhERERGRlKTwm8beffddjp2Go+OvMldJGohlfZ49e/ZgGIa5SkREREQk5Sj8prFwOMwNt9xmLpY0ceLUabJn3E4kEjFXiYiIiIikHIXfNPbRRx8x/upMc7GkkQlZn+Po0aPmYhERERGRlKPwm8ZisRj6EqM0N/4Kc4mIiIiISEpS+BUREREREZGUp/AraW1HjY1VW82lIiIiIiKSahR+JYVtZdWtNubXJKXbt56mcv7T6BJPIiIiIiLpReFXUlZk3Q/Y/53vM3djMzvMlSIiIiIiklYUfiVFvc3/eOHrdz3E3Hu8bNsaL2v+9x9y6I0fssg0IxxZV8D8W22JnwKa34qX76ixUTk/UZc8gywiIiIiImOKwq+kprc28wJl/O3NMHt+CdvqnybCTZT+x/eZetv3+dWbEVrqC/ua2x5speXNCC1vRvjVd2D9z5OCbklDvC6pvYiIiIiIjC0Kv5KSdvw8aYa30gtvNPI/idncIW1d3Dfzu+gn+wZUTb/lpgG3RURERERk7FH4lRS0lW0bS1iRmMntnc194cW3zQ0TtrKqkv72a0vMDUREREREZIxT+JXUs7WZbfeUMjupyHZXGfzkJ+y4uZivYz7nt5C593h5rPec30pv0pYiIiIiIpIKxsVisZi5UNKD3+9n/M1fwBiXYa6SNPGZj6PcwAlyc3PNVSJyjlpbW3nppZeora01V4mIjBr/9E//xH/+539yzTXXmKtEUp5mfkVERERERCTlKfyKiIiIiIhIylP4FRERERERkZSn8CsiIiIiIiIpTxe8SmN+vx8jy8bxcVeYqyRNZHzyEdOuteiCVyIXgS54JSJjgS54JelM4TeN+f1+9r/7HhnjNATS1YTM65h5y80KvyIXgcKviIwFCr+SzhR+05jf7+fOO+/k6quvNldJmnjvvfd4//33FX5FLgKFXxEZCxR+JZ3pnF8RERERERFJeQq/IiIiIiIikvIUfkVERERERCTl6ZzfNKZzfkXn/IpcPDrnV2TsOnToEIcOHeKvf/0rFouF7u5uc5OU8eyzz3LvvfdisVjMVSnjiiuuwGq1MmXKFOx2u7la0pjCbxpT+BWFX5GLR+FXZOzp7OzklVde4ZNTMW6YfjuxCddw7PQ4xgExIGOceQsZrXoSieYz4+CKcXDF8WN8eHA/sU+Ocscdd3DjjTeaN5E0pGXPIiIiIpJ23n33XX7zm99w/a0OMr84i0+uyuTY6Xja7Z0Z6onpZ6z89DoZA+M0fPyZCVhm5HJD7iw2bdrE/v37+xtJ2lL4FREREZG08sknn/D73/+e2wr+F0c/oxVwqezo+CvJ/cY/8vvf/57Ozk5ztaQZhV8RERERSSt/+tOfyHb8DR+N+4y5SlLQ0dPj+MLfzmXXrl3mKkkzCr8iIiIikjZOnjxJMBiEz37eXCUp7OOrMjkUjhCNRs1VkkYUfkVEREQkbbz//vt8dsrNHD912lwlKW7yjNt57733zMWSRhR+RURERCRtRKNRLNdnmYslDXzmmms185vmFH5FREREJG1cddVVjM/IMBdLGhh3RQaf+YzO805nCr8iIiIiIiKS8sbFYrGkb8aSdOL3+5k+fToTJkwwV0ma6OzspKenh9zcXHOViJyj1tZWXnrpJWpra81VIjKK7N+/nwNHPuF0li54dSEi6wp4jAbWPniTuWrUusro5nrjCPn5+eYqSRMKv2nM7/fz4YcfMn68FgCkq6uvvpopU6Yo/IpcBAq/ImPDqAq/bz1N5b/DipaHsPXedv2Q6WsjLCs0Nz4HWxczvz6XX/X2ewko/MpYpPCbxvx+P3feeSdXX60vd09X7733Hu+//77Cr8hFoPArMjaM2vD71tNUunbz4Ju/YLa53Sik8Ctjkab8REREREQup6GC71tPU3mrjfm32ph/62J2JIp31PSWxX9WrUtqN/9pIr3bJv6/o8ZG5fyCeH3NVlO/SduwlVV95QU0v9V/f33b32pj1dbeHewXWddfP7+mt8FWVt1aQOX84bcT+bQp/IqIiIiIXC5v/JBFrh/Cd76TNOO7lVWu3Tz4ZoSWNyO0rIXH+kIlzF3bW17CNi+seDNCy5uvUMEPeWaokFnSEG9fP4Pmf48vq255M0KL//tMBeBtmuf/gFv9veVlvPDvvaE4afu1JWyrTyonvsR60es/iNe/GWEF7gFB9+v/ES+/oGXcIheJwq+IiIiIyGVTwoo3X+Hr3jv6Q+Nbb7AfL4/1zqZWeuEvbwwMnQDTcxPhFeAmbvrigNo+02/pXZq8jzffKGHuoCC6jzff2Md6V+L+XD/k0Bu7OZSo7dt+wP3FRQ7sho3uvpnfxzbC/gNvJ2pzuelm0wYil5HCr4iIiIjI5XJbLlO5idKWBqhMLA+++TamU5KY0U38XJSLV83g1tt283ZiSfPA8hlU9M78vhmhZYTnHttuyYV7EjPDiZ+xdB6wpBeFX7kEIvh+5CHQe3NLDTmznTgL8ilcsBzvfmNg80smxOq73HijQNRP9V3LCfSY25hsqaH46ZC5NMF0XCIiIiIXTSHL3owH4Mp1M1jmz2Vd8rm5Scuez99NlNbkDpzh7S1v+QFv9pYPOBf4LAp/wa++8IP+7XR+r4xiutpzGhvJ1Z59C93wTANFfSUGoW0+Ap0WLJkW7AUuHJkQ3eXDv8/AmleEy+LDPbue7CdrKMotwrWvHDcNNNwNGEFWzq3G1rSV8in9fdnnFpE3EeiJEtjiJ9SdKMsI4tsSxCCpzUj2YboFY0Mpbjw032+N7/q2aopfW87mh22AQXBLG8yJb9vncAB/twPX7VECW8JYssIEQxby7nZh7/QOPK7bLUkbjk262rPIxaOrPYuMDaPqas+X29bFzG8ppaV+0DrolKSrPYtmfuWcRNYV495ux1lgJ/h4Nb4IRNaVUr7DjrPAQXCxm0aLHbs1m/wCJ/lTTAHR4qB2mY01TSEi69zU7HfgnG2hoaya9h5oX1KKb5IT52wLob0R6Ibs2U6cs6PUz19OcKT70A3+LVB6dyL4Asx1Y9+2OfEpZhj/z1bj7+yvBiBQT/WmMNBB/YIaGj6wk5fppXRZO0w8w3GJiIiIjAEDrsxcCSvSJPiKoPArQ4vQ+G9OnAVOajb5qClw4ixYSTvQ0Wqj5tt52GwOHPZ4647WIJaIF886L6FMC13dVrIyLFhtNqzJs6q9MsDogY5WC+UPOrBNc1E1L0jDdrDNOIbnW0t5qgXyZtmAIA2PuCl5oB7/rhChke5DZ4igkU/egPu3YY8GiC9qtlPl20zVtOR6k+lFlM93YJ9fhCPaBZazHJeIiIjIKGd7sPWcz+sVSRUKvzIEG2W/bKOttY36u4uob22jrbWWOQAZEcKJE0CM3vNnM+y4Hq6l9tFa6r0N8UA57MRoFO+GICXz7ZBhEO1OlHZZyJ4I9ofbOLBlDeXTvBQv/m8aF3twPLOVttZmam5PdDGifZiA1QgTTVT3mWLvu1iE0Rnt336khj0uEREREREZzRR+5YwsE7MH5L2iZWX452WTk1tK/W4LZEDRshJ88wpxV1ZQXFCM56CdopIQdWUVrGyJp9T2n1dQsSCfW+xFtD3gp24mFC1z4plbTEVlMTWdVVTdDv4l+RQ/UsPKp4PkzbuTOXO7WF1WQUVZNWv2n8s+2HDODLL5taSd726nDQfxyeIQa+Y6WXMwqf6sBh+XiIiIiIiMDbrgVRobyQWvBjGiRLFiJcjKojW4/E/FZ4QBo9vAknmOU6M98dlfqzVpu+4ohsWKJSN+04hGwWrtD+Ej3YfDHkq/l4XnmRKsQPDHpTTMa6ZuVm9HogteiVw8uuCVyNiwf/9+Ot58i9PXftZcJSnuyhOfMO26CbrgVRpT+E1j5xV+9zdSs8pPFBtFy5ZTMv0cw+7FcA77ENpQg29GHVU2Hyu3Oah9wGFuktYUfkUuHoVfkbFh//79BPbuY/zpU+YqSXE9MZgxdbLCbxpT+E1j5xV+JaUo/IpcPAq/ImPD/v37GT9+PLfccou5SlLcBx98wKFDhxR+05jO+RUREREREZGUp/ArIiIiIiIiKU/hV0RERERERFKewq+IiIiIiIikPIVfERERERERSXkKvyIiIiIiIpLyFH5FREREREQk5Sn8ioiIiIiISMpT+BUREREREZGUp/ArIiIiIiIiKU/hVy6BCL4feQj03txSQ85sJ86C+M/K7QNbn50Pd+5qQkB023KKZ+dwiz2HnNmFrNllbsuA9iMV+mkO7k3m0oRNbnJ+OnxvRksFhT8Oxm8cXkNhSSNRcyOzqJ/lRfnk2G8hJzefwp8HgACeH/mImNsCoaeLqdliLhURERERkZFS+JUz8i104xtQYhDa5sXb5MPX4ifYHS+N7vLhbfLi32/A4TYafuGhocmLf68BRpi8x9poa43/1N4Jxn4/3iYvvl39MXFAHwA9EdqbvHhbAokw2c7yRwyWt+/hQGgPe9qbcU+LN+3rb2eE+NYGoZ0+vE1+QonuMEL4e/vriRdFX0vc575Em8OB+D4n/h84nCjvNaiPIHU/s1H/bUe8fkoVDXMbWL4t0f5wAO/OwXG2/bFqjMc62BM6wJ7dHTTfb8fY68Pziwaam7wEDhsEtwSIdAfxNwUYP3cpbkdi/3YFCbR48W4LJY61/7HztfgG77OIiIiIiCj8yrmJrCvGvd2Os8BO8PFqfBGIrCulfIcdZ4GD4GI3jRY7dms2+QVO8qdYAAi1evE2efFuCWK8XE3xWsgryIO1pSx/bYg+uiN4ikrYPDEP51QLXQDYyctuYPmKRnw7Q0R7rFitwMvV5K+IkleQR/YOf3zGeb8f/wd28jK9lC5rh552qhesgdlO8vBQuiIIL1fjfCyMoyCP7MQ9EKinelO47//1fdPXDN3HQR/BWaXkZfQ3s91bQnhje/xGsIGqxj39lQn2vGwaHltOY0uAUNTAOtGKZYqdbKud/AIn9olhfEuKKFnhJwq8t6k6vi+BeoqXNBCemoelqZSal+PH73zCiD+eG8sH7rOIiIiIiAAwLhaLxcyFkh78fj933nknV199takmQuO/lfDUPoi+FoSZDqwUs7q1lq6FboxfNlCSAb6FOQQf24NjRQ4NM9zkAF2BPdifqMO4ezmO3Q0UEV82XBpdzZp5QIaVY78qpuKQC9ckIOSn6/6tuJ419+Gm7XsGDY0liWXMQep2L8XeYxDZ5ce/zU/DLxtwrAvj9hXjW7iZ2tt79z+pPT7cC6HhsSCFlSFcc7OBEP6uMtZne2i8u4Ha2+PLnpffvocG3OTsrWPPt+2wyY2bhv6ye7yD+tg614O7p4GGe5IfPx9uV5jV/nJsycUmxuEA/m1+/Bs8NNzuIfxEV9J+h1id2/8Ynmn/6va6Bx/H3eZ7G9p7773H+++/T25urrlKRM5Ra2srL730ErW1teYqERlF9u/fz3vvvcfkyZPNVZLiotEosViM/Px8c5WkCYXfNDZ8+O3nW+iGZxIhFvD9WyGhFVupmgLeshxCK/bgeLyY8BObKbf2bhVi9ezlOHb0h183DX2BLPSzUtbMaab+zt724Ps3cx/JAbI3zJaTFU3M9gJsdJN/sI7mngpWz9rKU3OTtjWH3xVBSn/hpHnVnN5GhH5ayOo5W3nq784cLvvK7vUO6oOXqykNLqf5weSYm7jPZ4rAiBIxLNis8RnwXtFoFGvvgfR4cc8JUbfDwcrZQWp3nGP43V/I6i/Hjz/44xzqZir8ilwOCr8iY8P+/fvZt28f48drAWS6OXnyJJMnT1b4TWMKv2lsJOHXv6QGnqjH1Vuw10PpPcsJZjixEqJ0UwdLDQ+lDzRiybMTDYYpeXYzzg1OynfnUPxAHbU9SweEX6J+aubVEMzLx3q4g+xvdVA/1dxHM9mP57A84sJOG22hctp2O/HMKMHnKCbfFqYj4KB+Sz0ufFTMrePY7ByMoJWqVhcec/h9xol/iYua/fnkZ4bpmLKUjsogzvkN2GdnEdrhx/7EMRrmeil11GMpyCK6L4j1sQNJgTNrcB+PRSj9N2h4roy+eLtzOcXbytmcCKjjmtzEnun9+CCu/bFbKNnkoHh2NuFAB45VfurnWvAudOKx5FOyuJboAyMLvw0FfmrmufEadhyWCNkrDrB+/oC7G5bCr8jFo/ArMjbs37+f8ePHc8stt5irJMV98MEHHDp0SOE3jSn8prGRhN9BjChRrFgJsrJoDS7/U/TOgxrdBpbMgTOcZ9RtYGRa+kPjEH0Y0ShYrQPa0GMQNSxYM5MLR6jHwOixYOntcKi+hipLZuqj/ZFC/Iu3JpZdR/EurMJ4soGyvlns4RlRA4tpVvic9e6vJYp3YTldTzRTfqb11kkUfkUuHoVfkbFB4Td9KfyK1nvIuTnso+6RCioeacCxtr4v+ALnFnwBTMGXIfqwmIMvQMYZgunZZCQF38TtQX0NVZbM1Mecx+uwPOMlAhg7GwgtWjOi4AtcePAFMAJ4llRQsbiO8GLPiIOviIiIiEg60cxvGjuvmV9JKZr5Fbl4NPMrMjZo5jd9aeZXNPMrIiIiInIRRFpW4tmVuHFwDcW5TpwFTpxFFax5OWpqfemEflaIe2MUiOJfXMjyneYWZiHWFNXgNxcnDDgukTFM4VdEREREJEnop25W7x9YFt3lw9vkxdfiI3A4Xmbs98fLdkWBCG3PPoWn0Yt3SxCjx8C6sIG21jbafl1P9lon1S8P7Mu/30j0bhDa5u0v64nQ3pR0e8T7AHQ3UtNazpp7rIAV15O1RB9bQyTRR2Snt2/bftm4vuUmB4PglnaCe/14m3wEOhl8XOZNRcYQhV8RERERkTN5uRrnEwZ5BXmwsZz6QLyseC3xsrWlLH/Nin1aFtm5Tpx59oHXLMmwUvI9N/5f+uJfk9hoIa/AQWiZG89hiKxzszySh7PAQTQYBKMLi8OJs8BO+/1uGrtHug9Aqx/uLaHv8iMZLtzT/WxOpN89jVU0BJP2DYAwviX1dBDGt8RNXXsWeY4QNWUeIpzhuETGGIVfERERERGg/cfxZcqlT/qov9+Js6CCxsMQau/C/b0S7DY7jhlZAITag2C007iukYABRtiCNQssVhu2iUNExAwL9MT7Kqp0Ybc5KF9kobElgnVKFu2rqql/Noh9Th70RGl7wk3JvVU07A8Sjox0HyD02jHy8wbev21qlEBiJtv1RJj6eQOqTebgXpSHfWYRRbYoxzjLcYmMIQq/IiIiIiLAnO+20dbaRvMjRdRsaKOtdT1lU4CMCOFwvI3Rk2icYSWvrJbaR2up/eXWeKDMGD4cBpsacMx3QYZBV2KFstEdxTbRhmX+eg7saGb5/DA1d6/mN6uWEqrcSltrG/V3JzoY4T5MsBqEOxP1fWzYE98GYUQjRM917fIZjktkLFH4TWPjx+vpT3eGYTBu3DhzsYiISHrLzMaS0X/TvqgWy7Jsbsl1UuM1mJAB9kVV8HA+xZUVuIvyqdkC9nmlhFa5qfiRjwgQaayhoqyQfHs+yzMbaLjfgn1ROZGHCnFXuilucrH8bgg9XUrhwmpqHvdCkYv/VZCD71tuKha6Wb7l3PbBNsdB8MXkdc0G7e3gmBa/5X8km6pEnyNlPi6RsUpfdZTGOjo6mDRpElOnTjVXSZoIBAJ89rOf5eabbzZXicg50lcdiYwN5/VVRz0GUcOC1RLFu7CcrieaKU/MpNJtYGRazvFcWINoJ1iTlxEbUaJYsfYWdUcxLNb+ED7ifYjgKVlK1i8bKLECe1dS+kwRzY/nJRqnL33VkWjqL41NnjyZV1991VwsaSQQCJCdnW0uFhERkWRGAM+SCioW1xFe7OkPnQDnHHwBLAODL4AlKfgCZCYFX85lH2yUryqmbUMAgwjejXbqVij4iqCZX/H5fMyePZtJkyaZqyTF/fnPf+bjjz9mzpw55ioROQ+a+RUZG85r5ldSgmZ+RTO/ae4rX/kKW7du5fjx4+YqSWHRaJTXX39db/4iIiIikjYUftPc5z//ee644w42btzI+++/b66WFHT48GF++9vfMnfuXK666ipztYiIiIhIStKyZwHg/fff59VXX8UwDL74xS8yadIkrrzySnOzlNLZ2cnevXu54447Uv5YT5w4QTQa5Xe/+x233XYbs2bN4pprrjE3E5ELoGXPImODlj2nLy17FoVfGeD9998nHA5z9OhRUnlonDp1ilAoxOTJk/nrX//KlClTzE1Syvjx47Fardx4441YrVZztYhcBAq/ImODwm/6UvgVhV9JSy+99BLXXHMNX/nKV9i2bRuf/exn+dKXvmRuJiIyYgq/ImODwm/6UvgVnfMraWf37t2cPHmSr3zlKwDMmTOHAwcO8Pbbb5ubioiIiIhIilD4lbRy6NAh3njjjQFf72OxWLjzzjtpb2/no48+GtBeRERERERSg8KvpI3u7m62b9/OnXfeydVXXz2gLjs7m7/5m79h+/btA8pFRERERCQ1KPxK2mhvbycnJ4cbb7zRXAWAw+EgMzOTV155xVwlIiIiIiJjnC54JWnhyJEj/Nd//RfXX399X9mpU6fo7Ozk85///IC2J0+e5IEHHiAjI2NAuYjImeiCVyJjgy54lb50wSvRzK+kheuvv56qqir+5V/+pe/nm9/8Jh0dHQPK/uVf/oVFixYp+IqIiMg5i7SsxLMrcePgGopznTgL4j8VGyKm1mfnW5jD6v1A1M/yonxy7LeQk5tP4c8D5qZAiNW5bnzm4jPZv5qchcNt4cOdu5qQubhXt4+Ku1YS7InvX/Vdywn0mBuZ9ARpXFhIjiObnNwcnIt9RIjg+5GHoY6ILTUUPz3sHoicM4VfEREREZEkoZ+646EzSXSXD2+TF1+Lj8DheJmx3x8v2xUFIrQ9+xSeRi/eLUGMHgPrwgbaWttoa21j/f02MEL4m7x4WwJEE0FxYB9xke1evE0+Ap3x2+2PVWM81sGe0AH27O6g+X57YuP+/iJGvCi61z9gW3qiBFq8eJv8hBJtiAbxNXnxbgsmCiIEtgSJV0cI7DQF9SH6CK5aje3xWhwZgNXFU9+NsvzpxHbdQfx9/fWL/KqahrnN7AmG2bN7D/4VTqyH22j4hYeGJi/+vQbGXj+BwwbBbV4CVjdL52Yn9i9AcKdv4HF0BuLH0eLDZ95nkSEo/IqIiIiInMnL1TifMMgryION5dQH4mXFa4mXrS1l+WtW7NOyyM514syzYwGigXhg9jYFiPS0U71gDcx2koeH0hXBIfqAyLpCSn5tJa/AjuVo/O7tedk0PLacxpYAoaiBdaIVetqpzltOdLaTvElt+HcBtLO5PYs8R4iaMg8RInjuK6djqhOnI0jFwkaMnnaq5ywn7HCSZ4MuADqoX+Ij3Pv/JzuSDn6IPgjhe20OpbOSms11Y9+2mQhAp5/VP/Mn+utny82j4/Ea1jT5CXYaWCZasUy0Y7dmk1/gJH+KhfCmaoruX46/E3itnupN4fg+Laih4QM7eZleSpe1x4+/oB5jtpO8Hi/lA/ZZZGgKvyIiIiIiQPuP40uUS5/0UX+/E2dBBY2HIdTehft7JdhtdhwzsgAItQfBaKdxXSMBA4ywBWsWWKw2bBMtAFin5SeWPduxHmwj2GPQ/qyHxp0GdIeH6AM6Wm3UrHBhtzlwJCZ4bYu2EvplKdZOP2vK8sle0g67NhNauJySaTbss6oouxNgDu5FedhnFlFki3KMDvxBC5GNHjwbQ1gzuggfbKNrYR3lM23YHQ7iR3MmQ/RBkA5LPnkD2tmwRwPxZdLTqtjsqyKx+/3urCe0YykOgjQ84iL7Lg8Ri5WsDAtWmw1rZryZa1k9VfeWkDcxadvpRZTPd2CfX4Qj2gUH2+jqPf4RHYeIwq+IiIiICABzvhtfotz8SBE1G9poa11P2RQgI0I4MY1p9J7XmmElr6yW2kdrqf3lVurnARnx0Nsny4bNZsNms2LJAOssd7z9o+vZ+oRr6D6I0NW7ZDkhGo1imZJH0QNLqf91Ha7WNkLWLIxD5rnVwSbMcFH1aC21j9bT3BgPpJFw/xLrkRjcRxZZRld8ljfZFDs2gB6DaKd50TMY0SgWqwPXvVXUNXqoDrfTAWB62EYkAyK9x98z+L5EhqLwKyIiIiKSLDMbS9K1L+2LarEsy+aWXCc1XoMJGWBfVAUP51NcWYG7KJ+aLWCfV0polZuKH/kGB8Np5VT1VJG/oIKKsmLyl/mH7MN1v52V84upuK+Ymi3xTYNP5JOdV0xFZQXFc+rIXlWOfXo5S40anGUVVNzn7Gs7UBFL7/bhcrmpqCzGucBDaHoJJQE3zjI3xYvWJC5o5aLUUY+7zE3xguW0n60P8nBm+PB3JzXrbqcNR3y29+AanHN7++4X3VRO9oxC3JUVuF1uOh5ZShF2ikpC1JVVsLJl0KM2vGnl1FpqyLbn4FzSjKFrlcoI6KuOJG19+OGHPPLIIzQ0NJirRETOmb7qSGRsOK+vOuoxiBoWrJYo3oXldD3RTLktUddtYGRaRj552WNg9FiwJG9g7sOIEsWK1dSpETWwmAtHxMDotmBJLCtmmL6GKutn6uPlagpbq9j6XQcAwR+X0jCvmbrk84CHYUSjYLWO/DEbRu/+RpvclEdX0/xg75MyNH3VkWjmV9LWsWPHBn3Hr4iIiMggRgDPkgoqFtcRXuzpD74A5xJ8iS+NHhB8GaIPy+DgGy8eonBEBgZfhulrqLJ+pj7+rp46SwPew8BhL94pdSMKvgCWixB8wSDwq2oqKiuoi1TjWXTm4CuCZn4lncViMWpra/nf//t/c8MNN5irRUTOiWZ+RcaG85r5lZSgmV/RzK+krXHjxpGTk8OGDRvMVSIiIiIikmI08ytpLRaL8ctf/pIDBw5w6623MmHCBK699toBbQKBAF//+te54447BpSLiCTTzK/I2KCZ3/SlmV/RzK+ktXHjxlFeXk5BQQEZGRl8+OGHHDx4cMBPKBTC4/Hwox/9iD/96U/mLkREREREZAzQzK/ICG3cuJFAIMB3vvMdrr76anO1iKQ5zfyKjA2a+U1fmvkVzfyKjNA999zDDTfcwO9//3tzlYiIiIiIjHIKvyLn4DOf+QxvvvmmuVhEREREREY5hV+Rc2C32zl58qS5WERERMaQjz/+2FwkacAwDMaPV/xJZ3r2RURERCRtXH/99bz33nvmYkkDhw4d4vrrrzcXSxpR+BURERGRtDFp0iQ+/PBDTp06Za6SFBaLxQgGg0yePNlcJWlE4VdERERE0kpOTg6vvPKKuVhS2K5du5g5cyZXXXWVuUrSiMKviIiIiKSV3Nxcjhw5wqFDh8xVkoLefvttDh48yFe+8hVzlaQZhV8RERERSTv/8A//wGuvvcYf//hHTp8+ba6WFBEIBHj11VeZO3cuGRkZ5mpJM+NisVjMXCj9du/eTVtbG7fffru5StLQzp07+ctf/sK//uu/mqskDf3pT3+iqKiI6dOnm6skDbW2tvLSSy9RW1trrhKRUSwQCLB7927sdjvTpk3DYrGYm6SUTz75BICrr77aXJUyjh8/TmdnJ6+++iozZ87kK1/5ioKvgMLv8I4fP8769et5/fXX+fjjj/XHrQCwb98+Dh06hMvlMldJGtq3bx+nT5/mC1/4AgsWLOCLX/yiuYmkEYVfkbHt7bffpqurK+Vngb/xjW/Q2NjIZz/7WXNVyhg3bhzXX389kydP1jm+MoDC7zDWrl3L8ePHefjhh81VksZefPFFXnvtNZYsWWKukjTW1NTEX/7yF5YsWcJ1111nrpY0ofArImPBlClT6Ojo4IYbbjBXiaQ8nfM7hD179hAOhxV8RWRE7r33XiZNmkRra6u5SkRERERGCYXfIfzpT38iMzPTXCwiMqysrCzefPNNc7GIiIiIjBIKv0O49tprdX6AiJyTG2+8kY8//thcLCIiIiKjhMKviIiIiIiIpDyFXxEREREREUl5Cr8iIiIiIiKS8hR+RUREREREJOUp/IqIiIiIiEjKU/gVERERERGRlKfwKyIiIiIiIilP4VdERERERERSnsKviIiIiIiIpDyFXxERERGRNGGz2eju7jYXi6QFhV8RERERkTSwd+9esrKy+PDDD81VImlB4VdEREREJMX19PTw/PPPU1BQwLZt28zVImlhXCwWi5kL091vfvMbDh48SHV1tblK0tyLL77Ia6+9xpIlS8xVkub+8Ic/0NbWxne/+11zlaSJ1tZWXnrpJWpra81VInKOurq6aG9v5+WXX2bGjBnmajkHH330EcePH+f9999n9uzZ/PM//zNPPfUU4XCYyZMnc9VVV+kxvgBvv/02X/nKV8jJyTFXySik8DsEhV8ZjsKvDEfhVxR+RS6OP/zhD/z617/m1KlTjBs3jjvvvNPcRM7R9ddfj9VqHfBY/uEPf2Dv3r0cOnSIa665ZkB7GbmDBw9isVjIycmhsrKScePGmZvIKKLwOwSFXxmOwq8MR+FXFH5FLtyhQ4d46qmnKCkp4atf/aq5WmTUevLJJ7n66qupqKgwV8koonN+RURERGRU+OMf/8gXvvAFBV8Zcx555BHefvttQqGQuUpGEc38DkEzv+evp6eHjz76KGWXfGzbto09e/ZQVVVlrkoJp06dIjMzE4vFYq6Ss9DMr2jmV+TC/ehHP+L222/n3nvvNVeJjHqrVq1i+vTplJSUmKtklDin8PvBBx9w8OBB3n//fSKRCNdff725SUp49dVX+eCDD/jGN75hrkoJN910E++99x6f+9znuPnmm7nxxhvNTc7Z4cOH2bt3L2+9/TbXZH2Oq6+zcvLkCXOzMW/P7j8DkJP7N+aqT9ml+XDh1AmD6AfvkX3DDXzhC1/gtttuMzc5J4ZhcODAAcLhMNFolPHjU3exyV/+8hdef/31lP6F19XVRXZ2NpMmTWLatGlMnDjR3CStKfyKXLjvf//7FBUVaeZXxqRVq1Yxa9YsXC6XuUpGiRGF35MnT7J9+3bePPgW0748i3GZVo7FxjEOiAFXXJq/w+UiO5X0TF81Dq4wugnvfY2saybw1a9+9bw/zNi+fTv7D77FtPw76c7QjGEqyBx3mg/3/QVL7BQFBQVcffXV5iZn9Ze//IWdO3diuy2Hq2/I5vj4zwDQE4MMvWeMKT2x+Dkyp4EJ405z+qMuDu7ayYxbb+HOO+8kIyPDvElaUvgVuXAKvzKWKfyOfmedhjEMg9/+9recnHAtk//uLoxrsjgWi//l2pulTsX0MxZ+kh2PwSdXZXL9l+7EcuM0fD7feX3h+csvv0zX8R6y73Qp+KaQ7th4rpqeiyV7Kr/73e/o6ekxNzmjP/7xj+wNvcUt/zCf2Odv4uNxn6EnFg9RJMKUfsbOD4ngC3AsNp7j136OqV/7BsevuoaWlhaOHz/e99yLiIiIjFZnDb//8z//w7VT7Jz4bDanzz5JLGPQJxOuZ2r+nbz00kuMYCFAn9dff533oh9xxU23cfJ075/GkkqOZX6Oa7Kn8sc//tFcNaw9e/Zw+IMPycqdzcfmT10kZfScjnHyc5O5doqdl19+2VwtIiIiMuqcMfyGQiG6Pj6Gcf0kc5WkmO7PXM3VN0zmT3/6k7lqWH/+85+xzczXhyKpbtIUgq+/QVdXl7lmkOPHj7Nz504+nzuLE6f0gUg6MK6fRPTYcQ4cOGCuEhERERlVzhh+9+/fjy3nS+ZiSVFXT5nGG2+8YS4eUjgcZtyEazh6WidvprqTp09j//JXePvtt81Vgxw4cIDPT7+dbs34ppXP357L/v37zcUiIiIio8oZw++7777LsSuuMhdLivr4FBw/DUeOHDFXDfLhhx+SdeNN5mJJUVde/zk6OzvNxYOEw2GuvmGyuVhS3CdXXMU777xzTqdNiIiIiHzahg2/H330ET3jruCU/phJK1dnjSzkvPHGG3xy8twugiRjl3E6xltvvWUuHuTIkSOcvEJX/k03p2Mxxl01YURL40VEREQul2HD74QJE8i48kpzsaS4z1x5Jddee625eBC73c4112SaiyVFXXFFBjabzVw8yPjx44ldou8gltEt48qruOaaa8zFIiIiIqPGsOE3vW1l1a2L2WEuljRxgc//W09TOf9pIuZyERERERG5bNIz/G5dzPxbbaza2l+0o2bgbUkhbz1N5a025g/4KaD57Kt4Rc5JZF0BlesGXxhM7y8iIiIil18aht+3aa7fTcV3StjWor9G08LND7H2zQgtiZ9ffWcG3FbG395sbihpbagPSWr0HiEiIiKSKtIv/L61mRco428fLGXuxub40tati3lsI2yrHDwjuKMm+Y/h3qWwW1l1awGV8+PlmtEZQ7YuZpG3jF+1PIQNc+BJXurs5bFB5ebnfSurzhKUNH7GmNu+z6+SPihpqS80txARERGRMSrtwm/kxUYoKcZGIXPv8bJu3dtQ+AtW3ANz10ZoebOV0qQZwdn1/X8Ir+htn/D1/4iXL9Pfx2PDW09TWQkreoMvW1nl2s2DvUFnLTzWF2BLWNE3U7w7qTz5eS9kWV9QamDuxh8MWkqt8ZMCTDPCvR9WJH+wMdRS58i6AtMHKnFDbbejxkbl/IJhP0QRERERkQuXZuF3K8/8ZB+HfnIH82+18dhGOOTdfMYLE8X/gI3/ofrYxuSaXG7SstkxZCurXI183f8LZvcWvfUG+5NneCu98Jc3Bo0H2y25SbeSn/e3aU7M3s6/1c22pFa9NH7GmDd+yCLTbP6On/+Q6Wv7P8RYVhh/Xtd94ZVE2St83ese8MFHZF0Bj9FAy5tJ4y1RPux2JQ2abRYRERG5hMbFYkN/ke/JkydpbN7I5+/4mrlq7Nq6mPktpUl/XL5N83w3/EcrN/3cxrb5vbNwW1l1azNz/bms+/f+mcLeP2jXPrgvXm/6wzYVnHjrDe784he44YYbzFUDBAIBuq68lhMTzv61SJffVlbd6oa15lnWxPM86HkcWD7c895fftOAsVTK01T+O6z4D3gsRcbPlcQw9nZQVFRkrhrg+eefJ/Nv7uTkkO8qo9xbieetb2VAr/j4iX+4UcKKN38BNeYPM+IrRxYeKGDRT/bFl08n9bOjJv7+Mrdl6O3mtiS//4xNnR1t3Ht3EVdddZW5Km20trby0ksvUVtba64SuSDhcJiDBw/ywQcf8O677/K5z33O3CRl/L//9//40pe+xIwZM8xVKeW6665j8uTJTJ8+nQkTJpirU8r7779PKBTigw8+IBKJcP3115ubpIznn3+eW2+9lZkzZ5qrUsbp06e5/vrryc7OZvr06WPuaw7TKvz2/gGa/AdmZF0Bi17/AS3zm+Mzf8ygwv8D3nQ1M/fN7/D2/DtY/0Z/+6nfeWVMhpeRSsnwu3Vx4rkdaO7aCMumP02l64cc6i28p4GWepLCTuI80JaHsJnD8lumbZlBhT8p/LYU8z8pMn7SO/z26/0AYwXupA8+hq5PPre8971n4YHkD0z6DfXeNNYo/Cr8ysX3ySefsH37diKdf+XGL36J2DXXYZzurx+vr1UfM04nfi+OHwfjAEvsFEZnhHf2/JlZs2alZFg6ceIE7e3tvPXOu9z0N/lwzfUYsf5Bq/E7tpyOxcfuuHEwIXaaE399j4N/epVZs2bxpS99ydx81Eqr8Ctnl5LhVy5Y2oTfAR9mxD8MWYE7abY2PvM7OxFY+8vjH3z87Yv94TayroBFP4EK/8CVJUNtN3Dlydik8KvwKxfX0aNH2bJlC5+99XaMa1N3pjfdXZMxjg92v8qNEz/LV7/6VXP1mGUYBi+88ALXTbVzwvp5xuKfBXJ2V2eMpyv4JyZdezVOp9NcPSop/MoACr8ylLQIv2ezdTGVB74zaNZW4hR+FX7l4mppaeGam27lkwmpu0RU4q68Yjx//fMrfHH6LTgcDnP1mLRlyxY+M2kyxnUTzVWSYq4YN46PX/8Tt95oIzc3+To5o1OaXfBKROQc9V7tuRIeVPAVkU/B66+/zsmMqxR808SJU6ex/c0sXn31VXPVmHTgwAGOnuhR8E0Tp2IxPuf4Ejt37uSTTz4xV486Cr8iImdy80OsfTMy6MrNIiKXyr59+/js9NvNxZLCuk/B526+hddff91cNea88cYbfP720T8DKBfPx6diTMn5Gw4cOGCuGnUUfkVERERGiRMnThB5/326Y1eYqyTFZdqm8N5775mLx5RYLEY4HObj8VeaqyTFWSbaiETMXxg6+ij8ioiIiIwSnZ2dXHWtljuno57xGfz1r381F48pR44c4XTGlZwe+pJCksJOjLuCrq4uc/Goc8YLXv2qYQPX3ppjrpIUdvK9Q3zj7/92RBe8evWNAxi91+6XlHYFcPP1V4/oglcnb7iJHg2LtNP95h4euO+fdMErXfBKLlB3dze/8f8B68xZ5ipJcVeOi2EEz35xydHsxIkT/N///jU3zCowV0mKyxgH3X9q5x//8R/NVaPKGcPvcxuf55rMsfXFxXKhxuOclTei8Hvi1CkmfU5fv5AOTpw8yYH9+8/6C/n555/nk1MxrvxMhrlKUtzx4ycovbtY4VfhVy6Qwu+Z9X6feipeeV/hd4zbupj5LaW01J/b9xamyphOifDr9Xr553/+Z3OVpLBXX32VqVOnjij8TpkyhUmTJpmrJAX19PTw4osvnvUX8vPPP883v/lNrrhC56qlm5aWFlwul8Kvwq9coLEbfrey6lY32/pux7/HvPTmAY0uWKoEhaEo/H46zGMosq6ART/JZcWFXthS4XdMhF+d8ysiIiIiF2RHjRvWRmh5M/GzNpcXXnzb3ExkVImsK2DR6z/QNzqkEYVfEREREblg+w8khd3CXyRmsray6tbF7IDE/23MT/ys2hoPH723599aQPNb8c0j6wqonN9fV7nOHKQH9jW/ZmtSeQGV8/vvQ2QofcG3d6b2raepnP80vdcr3lHTO34Gjqn5feM5MdvbOwYrvYnCt2me3z+W2bo4MT5NY3bQ+NSY/jQo/IqIiIjIBZld/wpf997R/4d7UoiIe5vm+QNnh5cVgu3B1r7bv/oOrP95/1/2h774g3id//vwk5/0Bw4AClnWO8v8ZgNzN/6gP2wAX/+P/vsQMTv0kztY9BOoeHjkA6R3TK24x8u6dW/HQ2nlbir8vasdSsybmCSN2bUlcNv3WTjg7jWmPw0KvyIiIiJygW6itCVp2XPNbhb1zVwB7OPNN0qYa/7DPWnmbNFP9g2omvqFGfH/3Hwb0wfUkAjTvbNkyecaA+Ry00U+11hSzD0NtPjLeMGVNIt7Rv1jqm9cvvUG+28r42/PcaxF1hXEzw1ueQjbgBqN6U+Dwq+IiIiIXIC3aZ5/thAxg1tv87LNvMyzElYkz4aNUGSdmxdKXkmE7VeouM3cQmR4U78wA25+iLVr4bHkZcxv7OYQAG/z9l+StxjCzbcxva+92T7e3B//X+TA7r7SQUutk2hMfzoUfkVERETkAtzE35bs5rHk8xXrc/nVgD/wb6L0P77P/srk8x0LmXuPt3+7vnMmz852Vxn8pHeZ9R2sf8PcQmQECn9By1p47NYCmnmIB/vGo5sXzG0HKWThd5LGfd/4vYnSmhK2Jcb6Y33DeivP/GQfbHQnvQb6e9OY/nToq45kAH3VkQxFX3UkZ6OvOtJXHcnFMXa/6uhcbGVVDSwbYvYrnemrjmQs01cdiYiIiIj06T2n0Q3zFXxF5NOn8CsiIiIin4L+i2LpirUicjko/IqIiIiIiEjKU/gVERERERGRlKfwKyIiIiIiIilPV3uWAXS1ZxmKrvYsZ6OrPetqz3JxdHd389yvf4Nlyi3mKklxGeMg82jnWX/XjmYnTpzgP//vc1wzTV9Sm26uGAdXffjuqL/a8xnDb2NjI1//+tfNVZLC9uzZw8yZMxV+ZQCFXzkbhV+FX7k4uru72fTi77jm6gnmKklxx4+f4JrPXHHW37Wj2YkTJ2h6fhPXXptprpIUd+LESTJO94z98HvdddeZqySFXXnllcyePXtE4ffdd9/lyJEj5ipJUVar9ay/kJ9//nluuukmxo/XGRXpZt++fdx9990Kvwq/coG6u7tpa2vjrrvuMldJihvpB82j2YkTJ/jd7343po9Bzs+pU6fYtGnT2A6/L774IsXFxeYqSWHnsuzZarXyuc99zlwlKejUqVO0t7ef9ZfZ888/z8SJExV+09A777yj8KvwKxeBwm/6UviVsUzhV8akcwm/WvacPkb6C1nLntOXlj0r/MrFofCbvkb6u3Y0U/hNX2Ml/Gp6RkRERERERFKewq+IiIiIiIikPIVfERERERERSXmXJ/zu8rCyJZK4EWLNghycBU6cc4qp+Hk70R5T+0vEaKmg8MdBACJPF1K6IWpuMkjo6WJqtphLEwYcl5yvSMtKPLsSN7bUkDPbibMgn8IFy/HuN0ytL5UQq+9y440CRPEvLmT5TnMbMz81RWsImYsBiOD7kYeAuVhGaODj51+SQ36BE+fsQoof8xL6tIZFt4+Ku1YS7AGifqrvWk7gbO9XW2oofnroUQEBPD/yoXcNERERkUvvwsLv/tW4f2r6o64zgK/Ji7fFh29n4k86I4S/yYu3JUC0xyDY4uGpZ5vxNgWIAIa1nIbWNtraN1M/5SmcS9qH2C5RtN+Pt8mLd1sIA4i+5ovfTmpz9n0ACFL3Mxv133YAYHuoAdezy/H39nE4gLd32yTZc5fidsTr/buCBFp692XwcaW70E/drN4/sCy6K/58+Vp8BA7Hy3qfU9+uKBCh7dmn8DR68W4JYhhh8h5ro621g63PuQk+UIwnsV1vX/7eQNwTjT8fTT4CnUBPhPYm78A2GIS2xdv4WvwEu4fuy9hQQ9uiNZRYAay4nqwl+tiaxPNqENzSv22/HNzfcpGNQXBLO8G9/v59OdxGwy88NDR58e/9tJLaaOTDvdBnKhviOel7Lv3xYGt6/IzOPOpa22jbsZXm+4K4F3j6npvevgKdie773g8Sr/1oMH47uU3f+4MP35YgBkPsAxBctRrb47U4MgCri6e+G2X504lXe3cQf++2yRxuls7NBiIEtgQI7vT19Wns9eH5RQPNTd6+14OIiIiIXBoXFn7NetqpLqjHmO0kr8dL+ZMd8bIFa2C2kzw8lK4IYZ+WTda0fJwFdqymLqz3LMe9zYOPCJ6yGkIOJ3mWBkqXtEPEg/uxCHkFThydQYKAQTZ5BU7yovW4VgRHuA9BOOgjOKuUvIzee7ZRek8Y7/bEzWADVY17+ncsIbypmvoAEKineEkD4al5WJpKqXnZcsbjEuDlapxPGOQV5MHG8vjj+HI1xWuJl60tZflrVuzTssjOdeLMs2NJ3t7ioHaZjTVNIXi5mtJGC3kFDkLL3HgOQ/uSUnyTnDhnWwjtjYDRhcXhxFlgp/1+N43dEFlXjHu7HWeBneDj1fgiEFlXSvkOO84CB8HF8Xb+LVB6d9KzmOHCPd3P5ghAGP/PVuPvDU59Oqhf4iNMGN8SN3XtWeQ5QtSUeYhMtGO3ZpNf4CR/yoCjSnuDn5MInvvK6ZjqxOkIUrGwEeMMj59lZi01E9fQcBAi69zU7HfgnG2hoaya9p52qu/zkV3gJM8SItgJdEP2bCfO2VHq5y8nSATPAjftdifOqUHqlvgIM8Q+EML32hxKZyXd+Vw39m2b48G708/qn/kJJ1VD/L2ielM4Pj4W1NDwgZ28TC+ly9qxTLGTbbWTX+DEPtG8oYiIiIhcTOcXfrevjC9Tvr8e35OlOAucVGyIwME2uhYup2SaDbvDQRbAwTaCPQbtz3po3GlAdxhLpgWybNhs1oHhBgALFo4BHfgzyymfacM+t4qi1xpoz8wma0c91asaCM5wkgewr4HqshLcT/gJHAyNeB/Y3YFldt6Ae7bZLASDiVmcefWEn3ANqDezzy+naKadovkOuro4y3Glj/YfO3EWOCl90kf9/U6cBRU0HoZQexfu75Vgt9lxzMgCINQeBKOdxnWNBAwwwhasWWCx2rBNHOJRzACjJ95XUaULu81B+SILjS0RbDOO4fnWUp5qgbxZNuiJ0vaEm5J7q2jYHyQcgY5WGzXfzsNmc+Cwx7vsaA1iiXjxrPMSyrTQ1RkiaOSTlznwrm1TowT2A9ip8m2matrA+oHm4F6Uh31mEUW2KMcsVrIyLFhtNqymftPC4UYqCpw4C2rwbaqJv3/8OL7CY/Bz0oE/aCGy0YNnYwhrRhfhszx+lgwDeqCj1UL5gw5s01xUzQvSsN2G46SHqiVP4SOPPBtAkIZH3JQ8UI9/V4gQHfgn1lA7y4ZtpoP4sBhiHwjSYcmPv+/0sWGPBuJL3adVsdlXldh+GNOLKJ/vwD6/CEe0CzKtWDKysNlsWIcY7iIiIiJy8Zxf+L2zlrbWNto21FD0SDNtrW2sv98GGRA5lJj36Eks/ssA6yw3tY/WUvvoerY+4YKMCcOHw72NNMwoxgVM6I4mlhBG6bJkY80sYv2+Dpq/V0R4SRGr9zRSvs5Bgz++Lw7i9zeifcjKwugcvDjZZrPF/2NEiUQHLWA8szMdVxqZ89022lrbaH6kiJoNbbS1rqdsCpARIZx4aoze5eUZVvLKauPPzS+3Uj8PyBjuUYzi3RCkZL4dMgy6EqdoG91RbBNt2B9u48CWNZRP81K82Edg1VJClVtpa22j/u5EFxkRwr0r4fv2wY7r4fg+1HsbqJo2AasRZvAZ4DbsvcOjM9q//UgNd1jpYEoZ61vbaGutp+ju+vj7x3fnxOuGeE4mzHBR9WgttY/W09yYCJTDPX5RLw3BEoqmAxkG0d6l7F0WsifaqWo9gP8X5dibiqluMWhc7MHxzFbaWpupuT3edkIkHJ+97X3PGHIfssgyugaf0jDFjo34ttHOc3zPACYMd1wiIiIiclGdX/jtlWEhO3kWZlo5tZYasu05OJc0Y2TEy6p6qshfUEFFWTH5y/xQUISjsZqKysQFbA43UFPppjDvFvK/Z6WhsQwLRSwt8OBcUEHFghoiD1XhOLiGUpeb6u/V4aUY121zcHWtxl1ZgfuRxIWGRroPX3bCFv+A8/MC7VHy46cAw5Yqsh/xJ9WOgPm40l1mNpa+ZeVgX1SLZVk2t+Q6qfEaTMgA+6IqeDif4soK3EX51GwB+7xSQqvcVCQuBNT+8woqFuRzi72Itgf81M0E+6JyIg8V4q50U9zkYvnd4F+ST/EjNax8OkjevHwcBTn4vuWmYqGb5YmLlBUtK8M/L5uc3FLqd1sgA4qWleCbV4i7soLigmI8B204ZwbZ/Fr/voNBezs4phG/SNtcJ2sOJtefjZ2ikhB1ZRVpflE0C9mmGf3Bz0kRS+/24XK5qagsxrnAQ2jQ49fO6soKimffwi13t+FuqcMBFC1z4plbTEVlMTWdVVTd7qdmdjHVy1ayZm8erlwLc+Z2sbqsgoqyatbsByhi6f1+XFNzyCmrJ2BJlA3ahzycGT78yed6d7fTRmK2+OAanHOHu+DZcFwUORqorqzov8ibiIiIiFwasWGcOHEi9pvf/MZcfFbHuo7FYrFYrOu5sljJ2nB/xcljsWPxqnNztCuW6DLhWKxrQIH59sj3oe1hV6wumLjR1Rwre6Ah1tVfnZZ27twZe++998zFg3R0dMTef/99c/GZnTwW6zoai8VOdsWa7y+JrU96amJHj8XOfXgci3V9YNrqaFfs2Mkz3D6WGE/H9sTq5lbF2pKrjib1dWh9rOSB5v7xEKyLlXy3o78+zZw8eTK2efNmc/Eg//3f/x3r6ekxF5/ZsM/JsdixowNajszJ4d8T+m93DRhvvbeP7a6LuR4eMCoG7kNrVcz1+J6+m3seL4nV7kiqT2M+ny9mGIa5OK289NJLsbq6OnOxyDk5evRo7IUXXjAXSxoY6e/a0ez48eNj/hjk/PT09MQ2btxoLh51LmzmdxCDwK+qqaisoC5SjWdRYo0o8Vliy/ks78u0ms6Fs2AdUGC+PfJ9mPN4HZZnvEQwCGwIUf5kmS5UdSkZATxLKqhYXEd4sYfypKeGTMuwq1qHZ8FqPi840zpgtnnQ7cM+6h6poOKRBhxr60ksvAUS52z3mlJO/fw2GnYaQATvRjt1Kwae7SkXybDPiQXLEOf3nlWG+T0BLINuDzwvP9xSR3VlBdXPOVi/asCoGLgPf1dPnaUB72HgsBfvlDrqki+AJSIiIiKj1rhYLBYzFwKcPHmSF198keLiYnOVpLBXX32VqVOncsMNN5irBggEAkyZMoVJkyaZqyQF9fT08OKLL1JUVGSuGuD555/nm9/8JldccYW5SlJcS0sLLpeLq666ylyVNlpbW3nppZeora01V4mMWHd3N21tbdx1113mKklxI/1dO5qdOHGC3/3ud2P6GOT8nDp1ik2bNvGP//iP5qpRReFXBlD4laGM9Beywm/6UvhV+JWLo7u7m9/+9rdMm3bGrxSQFHTq1Ck+/PDDs/6uHc1OnDjBr3/9a43fNHT69GnefffdUR9+L/KyZxEREREREZHRRzO/MoBmfmUomvmVs9HMr2Z+5eLQsuf0NdLftaOZlj2nr7Gy7FkzvyIiIiIiIpLyFH5FREREREQk5Sn8ioiIiIiISMpT+BURERFJB7s8rGyJJG6EWLMgB2eBE+ecYip+3k60x9T+EjFaKij8cRCAyNOFlG6ImpsMEnq6mJot5tKEAcclKUvjVy4ChV8RERGRsWT/atw/DQ0s6wzga/LibfHh25n4Q9oI4W/y4m0JEO0xCLZ4eOrZZrxNASKAYS2nobWNtvbN1E95CueS9oF9bQthJLo39vvxJpVFtnsH3B7ZPgAEqfuZjfpvOwCwPdSA69nl+HuDy+EA3t5tk2TPXYrbAcZeP+17g/ibvPh2RYHBxyWj3KUev4PG3ODxG33NF7+d1Obs+8AFj18OB/DvChJo6d2Xwccll5bCr4iIiMhY1tNOdUE9xmwneT1eyp/siJctWAOzneThoXRFCPu0bLKm5eMssGM1dWG9ZznubR58Pe1UlzVgme3Esb8G97oIRDy4H4uQV+DE0RkkiEGXxYGzwIn95VLcG4wR7kMQDvoIziolL6P3nm2U3hPGuz1xM9hAVeOe/h1LCG+qpj4Q/9f9eBtZsx2ElpTiiVjOeFwyBoxo7Ixw/BLBU1ZDyOEkz9JA6ZL2IcYvGGSTV+AkL1qPa0VwhPtw4eOXQD3FSxoIT83D0lRKzcsav582hV8RERGRsWD7yvgyz/vr8T1ZirPAScWGCBxso2vhckqm2bA7HGQBHGwj2GPQ/qyHxp0GdIexZFogy4bNZsVi7hsLFo7F+5pXhWuaDceD5Vg2bCaSmU3WjnqqVzUQnOEkD4No62rc95RQ1RgieDg84n1gdweW2XkD7tlmsxAMJua85tUTfsI1oN5szr3l5E1zUDTfRrSbsxyXjBqfxvilA39mOeUzbdjnVlH0WgPtg8YvsK+B6rIS3E/4CRwMjXgfLsb4tc8vp2imnaL5Drq6NH4/bZcn/A63Zr/AifPfGs99yn//anIW+gAIPuum0JFDtiOHnIJqfEN0FvppDu5N5tIz8eHOXY1pgUafM/cXYvVdbrxRgCj+xYUs32luM9hQxxFpWYlnl7kl8cewqAa/uXiMGnCcW2rImZ0YGwVOVvZ+snYOfAtzWL0fiPpZXpRPjv0WcnLzKfx5wNz0rM/1kJLG32Bn6a/bR8VdKwn2AIfXUFjSyFnPHOkJ0riwkBxHNjm5OTgX+4gQwfcjD0MdEVtqKH562D0YIwYen39JDvm97xkFK0ksdDoH/c9LdNtyimfncIs9h5zZhawZ6jW2yU2OeYnWWZzxfeEs/Z3P+URDju8znEd0xvOPRGR0urOWttY22jbUUPRIM22tbay/3wYZEDkUjrfpSSxCzgDrLDe1j9ZS++h6tj7hgowJw/9xvbeRhhnFuDLA6Eq853RHidqysGUWsX5fB83fKyK8pIjVm+pZeqicre1ttK1KfJ/rSPchKwujc/D7ks1mi//HiBKJ9i2kHpkzHZeMHp/G+AUmdEcTS/GjdFmysZrH755Gytc5aPDH98WBxm86ubDwe7HX7Le20fbLMmxAdFd8Lb5/f2IA9UTj6+Ob/IR6x1Q0mDgnJf5HIhEP1RtcNAf3EA7uYc+WOpyZA7cNdie27U4+XyTR3aD7jNDeu98QP69kS+96fIPgzmD/eS4J5j6MDTW0LVpDiRXAiuvJWqKPrekL+JGdXgKHk3sY7jgitD37FJ5GL94tQYzDAfx7o0R2+vDvzcL1LTc5GAS3tBPc68fb5CPQ2duhQWibF2+TD19L0mNwiYV+6o6HziS9j4+vxdd33L3nYcSfC9NxGmHyHkuMjdY2au80j6eh+oiLn4/U/zi0P1aN8VgHe0IH2LO7g+b77YmN+/uLGMQfr52+gWNtJOOPCIEtvWMiQsB8zscQfQRXrcb2eC2ODGBKFQ1zG1i+LdG+O4i/r79+kV9V0zC3mT3BMHt278G/won1cBsNv/DQ0OTFvzcaH6fdQfxNASION0vnZif2L0DQfGxDvWYvGR/uQR8UDDE+zY/VgOMzMDrzqOt9z2itZc4wY8D8ehz8mm5n+SMGy9v3cCC0hz3tzbinJfaqt7+dkfhzYISSztFJGGIs9p5H5N+XaHM4gH9vYovDgcGv90F9nN/5RIPH92TTe218fEYjAXxbgmQNe/5R3FCvVREZJTIsZGcm3Z5WTq2lhmx7Ds4lzRgZ8bKqniryF1RQUVZM/jI/FBThaKymojLxYeLhBmoq3RTm3UL+96w0NJZhmVZOeWc5hWUVuBc043qsBA6uodTlpvp7dXgpxlXgJGfTUtyVbtwrEh+9j3QfvuyELf4Bv9sC7VHy4295sKWK7EfO8eN883HJ6HYpxy9FLC3w4FxQQcWCGiIPVeEwj9/b5uDqWo27sgL3I2viExQj3QeN37EvNowTJ07EfvOb35iLB9pXHytbdaD/9sm2WNXtZbHmUDh24NflMdsDm+Nl85bGtobCsQO+qpjr0T2xY40lMcd322LhcFfsWOxArP7usthTzzXHmp9rjnUcisXCa0tiJWv3xMLhPbGn5pXEGo6GY+vvKYmt3x2OhXc/FXPd2xA7drItVnV7vKzvvmJtsaU2e6z8F82xrbu7YsdOxmKxWDi2ft6cWN2OcCy8e3Nsve9A7MAqR8z+wPpYR2hP7Km5rtj68DD3OW9OrNZ/IBbeXR+bM7M+diB2IFY/syy2ORaLxWIHYvUP1McOxGKxA6scsbJfD9VHLLZ5UfzfZG0Pl8TWh+P/3/otW2zpiwPrhz6OY7GO7zpiJc+EY+EPjsVivy6LcXtZrP6Z5tjWYDCxXwdi9TPtsbJfdsQO7H4q5pq3PhaOxWLhta7YnMc7YuHwnlj93zli9fvM99dv586dsffee89cPEhHR0fs/fffNxcPcGBV2cD7aq2KOR5ojh0IH4htftAWK/t1vMz17a3xsodcsdrdg49zzrfjY6P5xT3x5900ngb3kTjm726NHUg65vAvXTHbvNpYg68jdqDrWHyfksfsjqdiDe2bY2UWV6zWtyd2wFcVy3u4LT6GRjT+NsfKZsbHRCy2OVY2oGyIPmIHYvX31MY6kh6iWHh9rOThtvj/Q0/FiuY/legvSfvSmG16eeyp57bG9nyQOI5jHbHa20tiDeFwrOvogVj9TFtszrefijU/1xEL/7os5lh1IL4v5mMb6jU7hJMnT8Y2bx66Ltl///d/x3p6eszFSXofl36Dx+cQj9WA44vFNj8wJ7Y08Z6xNXhsmDFgfj0O9ZoOx9bPs8VcjzbENu84EOsdFsljteMXDbG2X5fFLHNrY5t3H4htfigvVtWaGDtDjEXHPetje5LHeN/jH///gLKh+gjVx0q+O2BUxMJrS+L3GYvFYi8ujdm+tXVAfSw29Pge+F67OVaW4YiVrWqINb+4JxZMvG/Fhjq2oV6rZ+Hz+WKGYZiL08pLL70Uq6urMxeLnJOjR4/GXnjhBXPxWR1LvO67niuLlaxN/JERi8ViJ4/FjvW+t52DY129f3/0lcS6+t4k4/12mf6+Gek+tD3sitUFEze6mmNlDzTEuvqr09ZIf9eOZsePHz+vYxjp2Bmxo139v9NjscHjd9Dtke+Dxu/Qenp6Yhs3bjQXjzrnN/N7sdfsZ9r7ljDaJ0JHaxBLxItnnZdQpoWuzg78QQuRjR48G0NYM7oIH2yja2FdfE1/730xh/pQB0tvh+BzVbjshXhe9+OdWEPtLBu2mUWUz4/P9pnPFxnyPifWUDfXjm2mg8Qc4RkN7iNE0MgnL/nTLcA2NUogMSPqeiJM/byB9UMex2EL1iywWG3YJsYXRzj+rY6lD5Tguv2qAdu6F+Vhn1lEkS0aP/uh1UbNt/Ow2Rw4RnIgF6j9x/HnsvRJH/X3O3EWVNB4GELtXbi/V4LdZscxI/6MhdqDYLTTuK6RgAFGePBxZucmlrfm2bEMMZ4G95E45hUu7EnHbFu0ldAvS7F2+llTlk/2knbYtZlQ75idVUXZncD0IsrnO7DPL8IR7YqfPzKi8XcmQ/RBkA5Lfvzck162bCyv7YmvDJhWxWZf1eCxd2c9oR1LcRCk4REX2Xd5iFisZGVYsNpsWDMBXCxfVUXJvXkkFuLEmY9tqNfspXC4kYoCJ86CGnybauLP54/ji5UHj88hHqtBx5fd956RP8UyzBgwvx6Hek3bKPeFaFhgJbptDe68bGpehoAv1DdW8x4qY84Q5+gM9d4Wau/C/Xg5jqQxfkZD9HG+5xMNNb4HvdfeXk7dt8somecg+V3DfGxDvVZFZDQzCPyqmorKCuoi1XgWJb3zZ1iwnMeaSovViqXvoj4AFqzWpI4yLIn3414j34c5j9dhecZLBIPAhhDlT5bpQj9pbeRjZ8QyrSQP10Hjd9Dtke+Dxu/Ydn7h92Kv2c/IwmazYbPZ4gM1w47r4VpqH62l3ttA1TSYMMNF1aO11D5aT3NjPBBEwqbz4LqjRDOsOOaWULWiAc/iMO37rFgj4bOfRzzEfRLpOvt2yQb1MQGrER7iHE4b9r5TAyIMOjVgqOPYHX/xnZeMCOHeFeifwnegzflufDlq8yNF1Gxoo611PWVTEvuRGB59+5FhJa8s/pjV/nJr/IMA03FarPGxYZtoGWY8DdEHEbr6ln3HRaNRLFPyKHpgKfW/rsPV2kbImoXRO2bPYETj7ywG95FFljHEGJuSHQ+sPQbRTvPgACMaxWJ14Lq3irpGD9XhdjqA8zphZKjX7KUwpYz1rW20tdZTdHd9/P3ju3PidUOMz8GPlfn44kHY1huGhxoDg16PQ72mo0S7LdhmFVH27Xo2P+7CvyOENcvoG6vDGmosEiFsGndnNFQf53k+0ZDj2/xeO1JDvVZFZBSzMOdb61m/dj31D8/BOiC0flrOYR8y57D08RJsWMh7aCkuJYc0dw5j55I5h33Q+B3Tzi/89rpYa/ZNipaV4JtXiLuyguKCYjwHi1h6tw+Xy01FZTHOBR5C00soCbhxlrkpXpRYr9/to3zqLRSWVVBRVoh7x1KWfqOI5Xc3UFQUv3/3uqEvMjP4Pl24p6+kaEEFpQt6LyZlp6gsQE1RBaUL3HhM58EN7sOGc2aQza8ltzJobwdH4rxC/yPZVJkvOjPUccwD+7xSQqvcVPzINzgwnUHRsjL887LJyS2lfnc8QH4qMrMHfGpsX1SLZVk2t+Q6qfEaTMgA+6IqeDif4soK3EX51Gw5y3EOMZ6G6sN1v52V84upuK//oj7BJ/LJziumorKC4jl1ZK8qxz69nKVGDc6yCirucw5zAaARjj9clDrqcZe5KV6w3HQRpiH6IA9nhg9/8jnYO9uI5iZOHDm4Bufc3r77RTeVkz0jPs7cLjcdjyylCDtFJSHqyipY2fKBaYszGOo1e0lZyE7M6PcaPD6HeqySj2/QqBhyDAx+PQ71mg5SPzs7Pp4qi8l/PJv6RXbsDy7FWOLEXVlBacEwF5MbaizeU0LHIifusmLcaxPP3NxSHE+6cZcVU7zCdGmuIfo43/OJhhzfZ3mvHc5Qr1URERGRMc+8DrrXiM75HcJI18uPxLGj5g2OxY4Nc36JqdC0zn/kzPd5rKsrZu5qqLJkA/o4tD5W8kBz/7kAwbpB5/MN6wKOY4Defo7tidXNrYolzigd0sU853eQ3vODTnbFmu/vP+85FovFYkePnfExHWSo8WTuY5jHb8gxMyIjG39DlfUz9dFaFXM9vidxoyvW/EBZrGGEJ46cbRyO1LCv2SQjPQ/p7Of8DmHY8Tn48T4r8xgwvx6He9yGOHdtxMxjcai+hipLdhHPJzrz+BuhM71Wh6FzfnXOr1wc53vOr4x9I/1dO5qd7zm/Mval9jm/wxr5evmRsGSaN7BgMZ0/axm4oL+30LTOf+TM92mxDv7OraHKkg3oY0o59fPbaNhpABG8G+3UrRh4Pt+wLuA4Bjjso+6RCioeacCxtp7EYtNPnxHAs6SCisV1hBd7KE8+GTXTcsbHdJChxpO5j2EevyHHzIiMbPwNVdbP1Mff1VNnacB7GIydDYQWraFshMtnzjYOR+YMr9lPy7Djc/DjfVbmMWB+PQ73uA06d+0cmMfiUH0NVZbsIp5PdObxN0Jneq2KiIiIjFHjYrFYzFwIcPLkSV588UWKi4vNVZLCXn31VaZOncoNN9xgrhogEAgwZcoUJk2aZK6SFNTT08OLL75IUVHi+xyH8fzzz/PNb36TK664wlwlKa6lpQWXy8VVVyVfSiu9tLa28tJLL1FbW2uuEhmx7u5u2trauOuuu8xVkuJG+rt2NDtx4gS/+93vxvQxyPk5deoUmzZt4h//8R/NVaPKRZ75FRERERERERl9FH5FREREREQk5Sn8ioiIiIiISMpT+BUREREREZGUp/ArIiIiIiIiKe+M4ffzn/+8uUhSnGXQ9weJjNy1115rLpI0YbPp+5BERERkdBs2/J4+fZqdO3eaiyXFvf/+++aiIQ3zDVmS5gzD0NhIU6+88gqnT582F4vIaLLLw8qWSOJGiDULcnAWOOM//9ZIb81IhX6ag3sT0BOkcWEhOY5scnJzcC72DdlXX/sR8+HOXU3IXAxAiNW5bnzm4j4hVt/lxhsFiOJfXMjyEfxZG3zWTaEjh2xHDjkF1fgiEGlZiWeXuSWAn5qiNcPsn1x0F3n8sn81OQvjI2io593s4o7fs/Wn8XupDPs9vwBNTU2UlpYyfvywGVlSzNq1a/nXf/3Xs35X5759+zAMg9zcXHOVpKD33nuPffv28Xd/93fmqgG2b9/OTTfdxOTJk81VksJOnz5NU1MT//zP/2yuAuCDDz4gEolgtVrNVSnllVde4Y9//CMPP/ywuSqlvPvuu0ydOpWsrCwmTJhgrpYLNKLv+d2/GvfGEhq+be8v6wzg2xbCyLRgmZRP0SwbGCH8mwJEM+245jkI/9SFa7ebNfc4cd5rpWGhl5JnltLXS0+UwBY/oW4reXe7sFsw9ZGHNQOir/nwBw26tizHf/ceVkcKKc9oZvOi+Gvc6IzCRCuWpP4c811Yns5h+ZRmyjOCGDNcFH053j66y4d/n4E1rwjXdAv0RGjf2EY4M4hnmYWndldhbAmSNS8PGwbBnSHssyysyV2OY3cDRUP0YWwoxY2H5vsT7zs9fqoXBFnuq4r3saUN5rhwZPYePBDxUPhv0OwrxwpgRIn2GPgr86ifsoaaeQ6KHAZt3XZyutvYk/lFsg59gmOendCWAEw9RnC3gX1uEXkTkx87C5aM+HNwpvV1afM9v5dq/A4xDoYc09Egvi1BjKiP5a0l7FkVHuJ5t2K1XMrx6yD80xyW376HhrsH93Hm8QuRnV7CthLypiQd/MUevxiEtvkIdFqwZFqwF5heLyYp8T2/N998M++88465WFLUBx98wLRp084afEkscWxvbzcXS4ravXs32dnZ5uJBpk6dqhUjaeidd95h2rRpA8qOHTvGH//4R/7rv/6Lbe1/ZP97H7L77XBK/3xg9HDLl74yqDzVfg50RnnlL0Ge+a//YsuWLYTD4QHPvVwGPe1UF9RjzHaS1+Ol/MmOeNmCNTDbSR4eSleEsE/LJmtaPs4Ce/yP42gHviYv3iYvgcMRPPeV0zHVidMRpGJhI8agPoLwcjXOx8I4CvLIpgsAW24eHY/XsKbJT7DTwDLRioUInqIifJOcOB0Gba3x+aX2ljayZjsILSnFE4HIulLKd9hxFjgILnbT2B3BU1TC5ol5OKdaEvcQxrekno7e/z/pI3nUDe4D/Fug9O6kD9wyXLin+9kciffh/9lq/J1JnQDYcsgLrKTmaS/+16IYGVasmVbs07LIznXizLNjCdRTeE8VDUEDCFC/xEeYML4lburas8hzhKgp8xAhgmeBm3a7E+fUIHVLBu6zJLko43eocTDMmJ6znLDDSZ6N+Pga8nkfzeMX9jRW0RDsr4bhjuN8xy9E1hXj3m7HWWAn+PjQs+Fj0RnD7+23386LL76opWxpwufzkZOTYy4e0rXXXsv06dP1R08aOH78OB9++CG33nqruWqQG2+8kSuvvJJIJEXeIeWsTp8+zQsvvIDD4egre+edd/jv//5vPs6YwI0Fd3HdzNlMuMXB+OybU/pn2px/YNqcfxhUnmo/WY4vY7l1JjcXLmDCzTNoeeEFdu0ack2dXGzbV8aXeN5fj+/JUpwFTio2ROBgG10Ll1MyzYbd4SAL4GAbwR6D9mc9NO40oDuMJdMCWTZsNmt8BjLTTn5i2ah9Ygf+oIXIRg+ejSGsGV2Eh+gj1N6F+/FyHDY7jhlZ8f26s57QjqU4CNLwiIvsuzxEuv14J9ZQO8uGbWYR5fPj83Nz7i0nb5qDovk2ot3Q0RrEEvHiWecllGmhq7MD/8Qa6ubasc10DJjVG87gPkIEjXzyTLNUtqlRAvsB7FT5NlM18DM7YA71oQ6W3g7B56pw2QvxHLZgzQKL1YZtYnze1vFvdSx9oATX7VcO2Na9KA/7zCKKbFGOET+O+PGP7DhS3iUdv0ONg6HHdNfCOspnJt3XUM/766N5/ILriTD18wbWD3kc5z1+oaPVRs2387DZHDhGciBjxBnD73XXXcecOXP49a9/rQCc4tra2rj99tuZMiV5/cSZ5eXl8cILL/Dxxx+bqyRFxGIxnnvuOb7yla+Yq4Z1xx138OKLL/LRRx+ZqyTFnD59mv/7f/8vTqeT6667DhLXDXjhhRe4+at/z4msz3P81LBn1kgK6M6YwHRXMfsPvcOf/vQnc7VcbHfW0tbaRtuGGooeaaattY3199sgAyKHEh9G9xjxfzPAOstN7aO11D66nq1PuCBjwsBltxlZ2Gw2bDYbVgtMmOGi6tFaah+tp7mxCvtQfRAhbJoxNaJRLFYHrnurqGv0UB1up8NixRoJn/08zAw7rodrqX20lnpvQzyQRrrOvl2yQX1MwGqEiZrbYcOeuDaf0RnF6DFVd0eJZlhxzC2hakUDnsVh2ncDGWdarDy8Cb3H3/ucpLtLPH4Hj4MhxjQQCZtGxlDP+75RPn6jEaLmYTXUcVzA+CUjQjhxIINeK2PYGcMvQE5ODrfccgsej4dodPDTIGPb0aNHef755xk/fjxf/epXzdVnlJWVxT/8wz+wYcMGjY0UdPz4cRoaGsjNzWX69Onm6mF99rOfZd68efh8Pl5//XVdACtFdXV1sX79enJzcwesGNm+fTtfKCjkIzIGtJfU9UnPaW740h28smPHiC+aKBcow0J28qzQtHJqLTVk23NwLmnGyIiXVfVUkb+ggoqyYvKX+aGgCEdjNRWVHgJJm8cVsfT/b+/+g5u673z/vwhOIhonkYkJUhKIBSaLXGjWXsgs2vVtkUtbyw072FPu1Npwh7Xq7yZ2M11wmTaQNKWQdlgn3c3Wzb2AkvstXzszMIid0sjbcBG7X6d2NvC12UAQTQDxw0RKQmKlccOBGPv7h2RsHwSYxDT28fMxw4z1/nz00TnWR8DLn885fjAsr9evQHWZPIuDimUYw7WkXO3LPfJXlsm/MbUVNLmzSs5ZJfJXB+T3+tX+6Er5snxa82CjfL7Uc/2bMt9Wx7eqXOFFqeeWFZcpeNwrf/56+RYHVLG4ThFJkku+yg7V+QKqWOxXsPNqYzjkmRPVSwcH9zLU1ia585S6WdJCjxqOD26X1B1W1bQZKqkMKFBZIv/elVq5SHItqlBsg1+Bn2S+kVdmPq38dkTeaQUqqKxXx6fMH5Z0XeZvpnmQYU7nl6u8wy9PpV9ly9M3e8r0vn9jNM9fKfKoUzW7Brdf5jw+9fyVfKsqFVnkVMHcCtUfsMkq/6xf8YZXg8Xjcb3++us6efKk5syZo9tvv50bXYxRN910k95//329+eabuummmzRnzhzNmDHD3G3Y3nnnHe3du1e33HKLZs+erZycHGVlWeQTMs5cuHBBH3/8saLRqE6ePKl58+ZdU/AdzDAM7d+/X4cPH1ZeXp4mT56s7Owr3CkBo967776rm2++Wa+99ppmzJihuXPnDvkVR8eOHdPrbx2TbRY3whuPbjnXrQvvnNJXvvIVcxOuwbBueJWBkTRks9uU3OZXVfJpbf9O+rPZY8josWn4v8nQkNFtk23wX9fmMXoMJQ2b7Ka/0o1kUrKnt6ReI6PbSG1r7X+cYaxMtcGGjNEZVMVjOQr+qjx1fejh9ar4lU/bnyo0PSsDI6mk7KnVxM+g/3h1cL3KNnq1+9kF5i5DjJsbXmUwcvP30rmUaU73v94Qn+F9N79mprmaqTbYaJu/F8dRVOt9DfJGfqErzeCxcsOrYYfffh999JHOnDmjWCx2TVtkMbpMnDhRkydPVk5O+nqdEXDq1CmdPn1ayWRSPT0W2h8xjtxwww269dZb5XQ6P3XozeTtt9/Whx9+qJtuGnx9CcaaU6dOacaMGbrjjjt0yy23mJu1Z88eZd0zU3+cePWb5sF6sm6YoFN7XtKyZcs0ceJEczOG6dOFX0NtP69VMCrZ51ZpzcMLZOdn0Iq9WKfwrHWqmZdU6KcRub9fKfef8PsSe7FO6/ckJYdPqx8rT91p+ArGb/hl/mbyec9fHWlS3YaIknLIt2qNyvOvPIEtG34BAMhk27Ztyp3/ZZ3r5Z+V8erDg3v11b9aoDvuuMPchGH6dOEXVjB+wy+sYKyE36te8wsAwHA4nU6C7zg39e57uM4fADBqEX4BACPi5MmT5hLGGW5+CAAYzQi/AABco711Dm3Yba5e3cDzdmvDzEe019wBAABcN4RfAMD4c+I5VZc+N/BrH048p+qZnyLQnnhO1VcLsbsfUeng1wIAAJ8Lwi8AYHw78ZyqvQf0naMJrSoxN17FvQ9r49Ffar65PljJL9Xc/LAGfikUAAD4PBB+AQDj18XgOyjApleBS2c6VDpoVXdvXX/NoSd29HcevH35pLaXDvQpnVms7ScyrDJfYrc2mJ+Tfr3q0uJUve5al6Qxlg3+/dkYX7KzTb88eQziV6GOX5MnTzaXRh3CLwBgfHrzx1ru/bH0gx8MWrndrQ3pVeDmowk1b5SeqNst7X5ET7zxI72Qrq9dMmQkSVJik1+bv9iYet7R1xS4z9wjk5PaXvqkZkbSrxep1G//flBQLk+PV3+tS9IYyzo7O80ljAM9PT0yDMNcHlP6+vrU2tpqLmOc+Oijj8ylUYfwCwAYp8q19uhr+nrogYFrfU+8qSMK6Yn+ldjqkPTGmzpw7ICmlZddcevyqd+/pYWl1xpS39LRN9/SZm/69bw/1qk3D+hUujV/xnRTf1hddna2ksmkent7zU2wuPfee2/M/47sm2++WVOmTNGFCxfMTbC4d999l5VfAABGrfvmapqmq6K5UapO3+zq3vuUr3Kt7V/5PZpQc/PDmjtjrk79/i3zCENM+7NZOnLsWn/d0yzNvG+WAv0rv0cTar7aNcSwvLy8PL399tvmMixu9+7dmj597P/AKy8vj90L49DevXs1bdo0c3nUIfwCAMa5Eq06mgrA1ZtmaVVkrjZdvAY3fb1tyQ8UeMOf4ZrfAY7vPKn8nz2Q7vOANr9p7pHJdFU0P6mj/Su/Mx3cGRoqKChQc3Mzq7/jyOnTpzV9+nRNmTLF3DTmzJ49W3v27GH1dxyJx+O6+eabx8T13hP6+vr6zEUAAK5VU1OTJv/ltW77tard2jBzuxaOs1VcIxbVX98/R7m5ueYmXKNDhw7pzTff1OLFi3XDDaxVWNm7776rSCSib37zm5a44ZUkvfnmmzpw4ICWLFnC/LW4Dz/8UL/5zW9UVlYmu91ubh51mI0AAIyEIXeJ9ksbx1fwxcgqKChQfn6+Nm3apK6uLnMzLOCTTz7Rvn379Lvf/U6LFi2yTPCVpPvuu08FBQXavHmz3n//fXMzLKC3t1cdHR16+eWX9dWvfnVMBF+x8gsAGCms/IKV35H37rvv6sCBAzpy5IjcbrcmTpyoW2+91dwNY0hfX59isZj++Mc/qqCgQF/60pc0ceJEczdLeP/99y/O31mzZummm27SLbfcYu6GMeTChQs6efKkuru79Wd/9me6//77deONN5q7jVqEXwDAiCD8gvB7/RiGoffff18nT57U3XffbW7GGHLhwgXdeuut4+pzcv78eZ05c0YnTpxg/o5xhmEoJydnzF6fTvgFAIwIwi8IvwCA0YxrfgEAAAAAlsfKLwBgRDQ1NSlh9JjLGEcmZ39B3/R+hZVfAMCoRPgFAIyIpqYmfe1rXzOXMY4cOHBQc+ey7RkAMDoRfgEAI6KpqUmVlZXmMsaRffv2KS8vj/ALABiVuOYXAAAAAGB5hF8AAAAAgOURfgEAAAAAlkf4BQAAAABYHuEXAAAAAGB5hF8AAAAAgOURfgEAAAAAlkf4BQAAAABYHuEXAAAAAGB5hF8AAAAAgOURfgEAAAAAlkf4BQAAAABYHuEXAAAAAGB5E/r6+vrMRQAArlVTU5OysrLMZYwj2dnZeuCBB5Sbm2tuAgDgc0f4BQCMiKamJn3jG98wlzGOvP7665ozZw7hFwAwKhF+AQAjoqmpSZWVleYyxpF9+/YpLy+P8AsAGJW45hcAAAAAYHmEXwAAAACA5RF+AQAAAACWR/gFAIxyHQr+JKxE+lFkRYGKij3yzC9R2RMhxQxT9+ulO6zA19Yr2iOps0El5U1KmvuY7apT2XMxczVt6HkBAIDri/ALAPgTCcu/LDy0ZMQU2RZSqDms8K6oDEnqSaqjOaTQtohihmQcDiv4y0Zt3xZSR6dknCnUupZWte7dre1Lo/IvDqYC5MWxOpTsSY9/pkPhQbXkwbBC5j7DOAZJim54Wo6nVsudJemeGjUubNSaPekxuqOK9D93MLdfKxc6pc4ORfZHU2PuicnQpecFAACuL8IvAOBzklBwsV9tLo8806JatyKsuBIKLq1S+zSPPO6oAsuapHtcctpdKir2yGW6ibBtzmrV5Tao8XhCwco6xdweFdoaVbGiTVKbapeG5Sz2qNAWU/SMZMipwmKPCpP18q6NDvsYDMUUPrhAFfMGXtvxrXLFd7SlHpyJ6OmfRxQfaE7pqFftzrjUUa+yFY2KTyuUbVuF6l6RbFc4LwAAMPIIvwCA66uzSYFijzzFdQrvrJOn2CPPT9sktSuSW6fV8xxyzHHLJaVqUZsSO4IK7ojJntWleLZdtqwcORwO2W3mwSVbliH1tCuSXaWqOQ65FtbId7BRbXLI/UlQNSt+obAKVeiQ9FajaivL5X8moo7jseEfg6JqtxWpcPALO5yyHTyUWnXOq9FL4Zr08zNzlVbJN8clX6lbXV2SrnJeAABgZBF+AQDX1z2V2tzSqtaWevkerFdrS6taf7hAkjQpEU+Fx56BDcOTZnlV8/hqrX68XtubUoFy0uXCYTKkxmi5fPnSpO5kettxUl02p+xyqablmCK/rJJrW5lqQ02q2uRWY6RVrS/WyZ0eYnjHkKMco+vS63Pvccqh1HOTZy7Z9HxVlz0vAAAw4gi/AIA/EZucuYPTnk8rvx2Rd1qBCirr1WFL1x4My+v1K1BdJs/ioGLyyuduVG11QMH9ktSmp6sDKps/QzMebJW/eZ3c8mllcVCexQEFFtcp8XCN3Iqobn6ZaletV8PhQnkfWCBv19PyVwfkf7RBqdtQDfcYCuXJCivSPejw97UqOTcdoY83yLOwf8zhMp8XAAC4nib09fX1mYsAAFyrpqYmVVZWmstXZCSTkt0uHVyvso1e7X42tSIsGTK6bbJlm55wNd1JJbPsQ7YRG0lDtosFQ6mXHOgw7GN4pVYlLTXa/UO3pKRCy2pkPNuoSvvFoca9ffv2KS8vT7m5XMQMABh9WPkFAHxu4s3rVFsdUO1WtzZv6A+dkvQpgq9S19Gar58dCL6SZBsSfHUtx/DX9Vpna1SoUzL2NSq2vIHgCwDAGMLKLwBgRHyalV9YCyu/AIDRjJVfAAAAAIDlEX4BAAAAAJZH+AUAAAAAWB7hFwAAAABgeYRfAAAAAIDlEX4BAAAAAJZH+AUAAAAAWB7hFwAAAABgeYRfAAAAAIDlEX4BAAAAAJZH+AUAjHIdCv4krET6UWRFgYqKPfIUe+QpXq82U++rOvK0CpaFJUnRLX6VuAvkdBeooLhW4f4XGWynXwX/GDNXryi8rEBPHzFXU2L/WCD/TnN1QOznJfLvSEqSEs+VqOLF1NdXktyzRmXzCzTDVaCC+SVq2C9pf1DrmzOdUEwNvjpFzGUAACyO8AsA+BMJy58OnRcZMUW2hRRqDiu8KypDknqS6mgOKbQtopghGYfDCv6yUdu3hdTRKRlnCrWupVWtLa1qbVmtBZKS+8MKbQspcsRIjWsaQ5KUjCq8LaTQnmjqcSKo2he92h49pHj0kA7tWidPdrpr/3iH0082Yqnx9sRSxyjJOBJRaFtI4f0D4TTxakihbWF1nEn3ORxRR2f/1x2Kdl/smqqZx+huUl1LlRqW2CVJjocb5d2yRpGeVHNiX+p7MFSb1jxqaE3bIR2LHdKhtu3y5xmKNgf1iy3bFdrWoYQS6tgVVTLRofCuD/VX/+BXQfr42g5HFRlyHoZie1LnEW6OXHLMAACMVYRfAMDnJKHgYr/aXB55pkW1bkVYcSUUXFql9mkeedxRBZY1Sfe45LS7VFTskStXktKBOR1OE5sqVLXXJU+xW9FH/GrqvnQMo6dNtQvWKO72qNAhdUmSo0CFHetV91xIkYNJGVl22bOlxKYS+Zqd8hS7ZbREFJMU2xNRfFqhbNsqVPeKpFdqVbZRKiwulDZWaM3B1PPKf21XYbFLto9SZxjfWav6jv6v64euLGcYQy0R6VvlSkVfSXKoYklcoVdTjw411agxnd0HuFTobNSatU0K74sp2WOX3W6TK8+pnLwieYpdsqtd9b4K1WyJytB7+u2KerWnj8//VKty5rsVW1GhYEJKbCqT/1WXPMUuRZ+6zGo4AABjEOEXAHB9dTYpUOyRp7hO4Z11qe3KP22T1K5Ibp1Wz3PIMcctl5SqRW1K7AgquCMme1aX4tl22bJy5HA4ZLdJkvPitueie2xqb4nKlggpuCmkWLZNXWcyjHG8VV3L1qlqjkMut1s5kqQFqo+1a+VsKbq1Rl5XiYKdhiI7Har7fqEcDrd83/HJJclVWiXfHJd8pW51dUmxtqhktKlpU5M6DMmIS+0tDtWt9crlcMudOpkryjRG7OBZFRXahvRzOGyKRlMJ1PtMXPWLhjRLcqgqHFPjYruSexrkL3Sq7hXJlm2TchxyOOyySdLsKq37fqXKF+Ura9CzF3yrSoV5bvlKHUp2p88jff7DOQ8AAMYKwi8A4Pq6p1KbW1rV2lIv34P1qe3KP1wgSZqUiKeu5e3p30wsTZrlVc3jq7X68Xptb6qRS9KkIXnQJrvDkQrD2ZKyXPJ+d7VWP75a9aFG1eRlHiMRN107251UMssu98Jy1axtVPCRuNoO2GS3JxS/2mpnll2FlanXXP387nQgTagrvd15WDKMMcluKJ5hDIfDIUkykgklB75VaUklu21yzPOp8vv1eukpryJ7Y1LWpFTovVZZA+dvpLdbAwBgBYRfAMCfiE3O3MFxzKeV347IO61ABZX16rClaw+G5fX6Faguk2dxUDF55XM3qrY6oOD+QU/vH2VVucKLSuSvDqisuEzB4xnGyC9XeYdfnkq/ypY3KCZJ3WFVTZuhksqAApUl8u9dqZWLJN9jPjU+WKZAtV9llcFUXxPX8hrpu0Uqqw7I7ytS3S7J+22X1peWKbC0THW70v1K/epYlar5nx+aqDON4VjgVvTlofuaO9qSKnKnvo486lRNeuwBUdXPd6pocUCB6jIVPeVU/XKXVOyTu6lWgeqg0juvh8W3qlKRRU4VzK1Q/QGbhiwTAwAwhk3o6+vrMxcBALhWTU1NqqysNJevyEgmJbtdOrheZRu92v1sakVYMmR022RL34BqOIxuI7XVd6ByyRhG0pAttXd6cFFJ2dNbqq9RtyEj2zawwppprEy1wYaMkVCwfKVynm9UuV1SMiT/o4YaflU56Drgy+gxlDRsqdXwz6L/eBXVel+DvJFfqP9duZp9+/YpLy9Pubm55iYAAD53rPwCAD438eZ1qq0OqHarW5s3DI5Y1xZ8pfQ1rkMrl4xxSfBNFS8fTK9mcPDVZcbKVBtsyBgOVW0oU+uLHTJkqOPFmKqeHUbwlaSsEQi+ktQZ1rpHAwo82ij3xvphB18AAEY7Vn4BACPi06z8wlpY+QUAjGas/AIAAAAALI/wCwAAAACwPMIvAAAAAMDyCL8AAAAAAMsj/AIAAAAALI/wCwAYER9//LG5hHHGMAy999575jIAAKMC4RcAMCJyc3N1/vx5cxnjyDvvvCOn02kuAwAwKhB+AQAjYurUqTpz5oy5jHGit7dX58+fl91uNzcBADAqEH4BACNixowZam1tNZcxTrz++uvKz883lwEAGDUIvwCAETF16lTdeeed+v3vf29ugsWdPXtW0WhUc+fONTcBADBqEH4BACPG4/Horbfe0okTJ8xNsKg//OEPamxsVHFxsWw2m7kZAIBRY0JfX1+fuQgAwKf1ySef6He/+52SyaQ8Ho/uvPNOcxeMcX19fTp37pz279+v06dPa8GCBbrrrrvM3QAAGFUIvwCA66Kzs1NHjhxRPB5XT0+PbrzxRnMXS3n55Zd17Ngx/f3f/725yVJOnTqlqVOnasqUKXK5XJo9e7a5CwAAoxLhFwCAEdDQ0KB//dd/1a5du8xNAABgFOCaXwAAAACA5RF+AQAAAACWR/gFAAAAAFge4RcAAAAAYHmEXwAAAACA5RF+AQAAAACWR/gFAAAAAFge4RcAAAAAYHmEXwAAAACA5RF+AQAAAACWR/gFAAAAAFge4RcAAAAAYHmEXwAARsC5c+d0/vx5cxkAAIwShF8AAEbABx98IJvNZi4DAIBRgvALAMAI+PDDDzVjxgxzGQAAjBIT+vr6+sxFAIA1sS13ZJ07d0779+/XK6+8ojvvvFNvv/22FixYoK9+9avmrgAA4HNG+AUAi4tGo/rNb36jtrY2ffLJJ7rhBjb9jJS77rpLn3zyiRYuXCi/36/XXntNW7du1dSpU1VYWKj8/HzzU3AZp0+f1rx583TzzTebmwAAGBGEXwCwsMOHD2vz5s2aN2+evvnNbyo7O9vcBSPs0KFD+vWvf62jR49q4sSJ5mZcxieffKKbbrpJxcXFqqysNDcDAPCZEX4BwML++Z//WXl5efqbv/kbcxMw6rz//vvasmWLsrOzFQgEzM0AAHwm7H0DAIs6d+6c4vE4wRdjxh133KHvfe976uzs1OHDh83NAAB8JoRfALAowzAIEBiTpk6dqmPHjpnLAAB8JoRfALCoiRMnKisry1wGRj2bzaaPPvrIXAYA4DMh/AIAAAAALI/wCwAAAACwPMIvAAAAAMDyCL8AAAAAAMsj/AIAAAAALI/wCwAAAACwPMIvAAAAAMDyCL8AAAAAAMsj/AIAAAAALI/wCwAAAACwPMIvAAAAAMDyCL8AAAAAAMsj/AIAAAAALI/wCwAAAACwPMIvAAAAAMDyCL8AAAAAAMsj/AIAAAAALI/wCwAAAACwPMIvAAAAAMDyCL8AAAAAAMsj/AIAAAAALI/wCwAAAACwvAl9fX195iIAWF08HteHH34oK/8V+PHHH+uxxx7TP/3TP5mbLOWGG26Q3W7X1KlTzU2W89FHH+m9997T6dOnlZuba262jB07dshms6m0tNTcZBnJZFIOh0NTpkxRdna2uRkAcB0QfgGMK/v379cbb7whW06ubpsyVRNuvMncxTLOfvyxzp8/p9vtOeYm6+jrU+8n59QVP60bzhv64he/qIKCAnOvMe/dd9/Vf/3Xf+lEZ6fuyp+tvqwbdfOkL5i7WcaHyS5JsvTcPW+cVd/5czr9+0OaOcOl+++/39I/0ACA0YDwC2Bc+OMf/6h///d/18TbJusL02fq4wv81Wc12ROlD35/ULdMlEpKSszNY1Y0GtV//Md/aM7Cr6v7RusG3vHslnPdOvxKRF/5ylc0a9YsczMAYIQQfgGMC7/5zW906735OnuLdVeSkJJ15rRu6E7K6/Wam8aco0eP6pXWNs38b19TNz+wsbRbJ0rR3S9pUUmJ7r33XnMzAGAEcMMrAJa3b98+3Th5CsF3nOjJvVt/OH9Bhw8fNjeNKefPn9err76q/OKvEnzHgY8uSAULv6FXX33V3AQAGCGEXwCWd/DgQdnudpnLsLDc2XP1xhtvmMtjyuHDhzVl5n36qHeCuQkW9Ye+ibrtrmmKRqPmJgDACCD8ArC048eP647pM3SWlbNxpbt3gs7pBr3//vvmpjHj1KlTmjT1HnMZFnfr3ffq1KlT5jIAYAQQfgFYWjKZVPaUO81ljAM5zruVTCbN5THjgw8+0Fn+mR53jBtu1AcffGAuAwBGAP+qArC03t5eaeKN5jLGgYk33Tymf4/zFIdTvWP38PEp9fT2yZ7D/QkA4Hog/AIAMAolEglzCePEmTNnzCUAwAgg/AKApezWhpmPaK+5PAyJTcWq3nTSXAaum711Dm3Yba4Ow4nnVF36nPjxAADgWhB+AWA0MP9n/sRzqp75KYMB8Lk6qe2lDpUSTgEAowzhFwBGmxPPqdp7QN85mtCqEnMjMMrt/pk2f/FHCqhJvzthbgQA4PND+AWA0eRi8P2l5kvpbcwOlfb/qetfCjbVM2x1TmwqHtRerO3pIJLYVKzq0oG2S7c6X+k1i1VdmqqzKo1M9jaHtLD0Yf1VufTblwfm1t66QXPKvCqc3ulgnpNXn6umcS9+DpirAIBLEX4BYLR488da7v2x9IMfpIOvJJVo1dGEmo8m1Hy0UQt3PHkxxErlWptue+EHB/TExZCa4vhOS/p5Cb3wA2nzvwy0n/rik6m2yI+kn/3MFJyv9JrS1/9nqo1VaVxqt/bsKNfCEsnxtcqBuXXiOW1640d6oX9eNT8sx+Cn3fuwNva3mebkleeqNL++f64mtHZJSJsGBWTmKgBgMMIvAIwa5Vp79DV9PfTAoJWq9PWTMx0qnenXnqFPuMgxY665JO1+5OKK2PKfvTWkadqfzUp9ce99yh/Soqu85lxNv3dIAbgoselJ7VFIT8x0qNT7Y51SSHt2p8Lt2vImLb/sCu6g3QbeH+vUoJYrz9WhOxye2DG4hbkKABiK8AsAo8V9czVN01XR3ChVp7ZqJjb59dvy19IrW68pcJ/5SSmJYwcGQoKUChPVurgy3LyxfFDblQ33NYGhTup3ISkQGViJbd5Yrj3NqZ/kDOxEaFS+aQV3b51f2jhot8Ggtis68ZyeCFVeXFF+4QeDPwMAAAxF+AWAUadEq46mAvATXT7pZw+kV7Ye0OY3B/dLr7DNdGh5qFJrvzN9UFuJFi4ZaC+tDg1qu7LUdtXLvSZwGSde0m9Vqb8avNpaUpHaNt86+Jpev44M2dovzS8t157qy+02uIJ7y/R1/fjiirJ5hwMAAINN6Ovr6zMXAcAq2tvb9aHtdp2zZZubxrjd2jBzuxZevDEWzG74IKEZ9luUn59ps+zo97+3/D9y/NUicxnjwJm2/6O/9fvNZQDAZ8TKLwAAAADA8gi/ADAmlWgVq74AAADDRvgFAAAAAFge4RcAAAAAYHmEXwAAAACA5XG3ZwCW1t7erv/vzWNKfvC+JGmCuQMsp/8ftbvvuksPzHGP2bs9B//3/60PPjYk5u240T93Hbfdoof+9m9NrQCAz4rwC8DS2tvbNXXqVN1xxx3mJljc8ePHlZWVNWbD74svvqglS5aYyxgHtm7dqmXLlpnLAIDPiPALwNLa29s1ffp05ebmmptgcceOHVNvb++YDb9bt27V0qVLzWWMA1u2bNFDDz1kLgMAPiOu+QUAAAAAWB7hFwAAAABgeYRfAAAAAIDlEX4BAAAAAJZH+AUAAAAAWB7hFwAAAABgeYRfAAAAAIDlEX4BAAAAAJZH+AUAAAAAWB7hFwAAAABgeYRfAAAAAIDlEX4BAAAAAJZH+AUAAAAAWN6Evr6+PnMRAKyivb1dU6dO1R133GFugsUdP35cWVlZys/PNzeNCS+++KKWLFliLmMc2Lp1q5YtW2YuAwA+I8IvAEtrb2/X22+/rffee8/cBItzOByaNWvWmA6/hmGYyxgHJk6cSPgFgOuA8AvA0trb2zV9+nTl5uaam2Bxx44dU29v75gNv1u3btXSpUvNZYwDW7Zs0UMPPWQuAwA+I675BQAAAABYHuEXAAAAAGB5hF8AAAAAgOURfgEAAAAAlkf4BYBPKdG8XsH96Qe76lQw3yNPcZFKFq9R6Mif6i69MT39Nb9CSUlKKvJIidbsM/cxi6jO16CYuSxJSij8k6A6zGVYSIeCPwkrIUmKqWFxgTzFHnkWlCnwL21K9pj7Xx9Gc0AlP42mHnQ2qKS8SUlzJ5PYc2Wq22Wupu0Pan1z6qwAAMhk4pNPPvmkuQgAVhGPx3X77bfrC1/4grnpovAyv95aUqFZg2rJ/WGFWw4odjKm7kmz5LxNMo5E9OvdHYp94tQsR1Iv/6hKDSdmKEeSywjrtS+HFf7Z/6X/scSp0N/8rd76xv9Q0W0DY8Vvdsk1OUvqSarjt2G17Y/JmDpLzpsSatv+svYeig70kaHYnl9rz76YYidPqcfp0pSbLh3LeDGgfy78X3pyvk2STa6vT1OoOqwi/wPKlqHorv9XZ6amnjtgkqbc6ZRr5q16a9denfnkLbXsiaaO5YOX9WR1g2L35ihrokuu3KzBTxxTurq61NfXp8mTJ5ubxoQ33nhDX/ziF83lQcLyL3tLFUsGzVwjpsiOPeo4GVPseI+mzZyirIvzLS7bTJcmHXle36uNKOveCbrxdqfe+t0krdkZVF3Ar//29g/k+V93qaZ02qCxDDldTtluGPgMRN+1yeXKUffBsML/cUDRQX10pkPhl9p04GRMsQ9v1ay7sjOMFdWTNTF975f/Xc4bJN32gL7+7g/05Md++VySOjsUenOC3HdlDz5hTbrVKefdLjn/0KHIsaSSHS1q67TJ5Zqkt174nmp2ZWlG743K+aJTQ585trz++uu6//77zWUAwGfEyi8AmL1SK88zhgqLC6UdVarvSNXKNipV21ihNQftcuXlyDnXI0+hS7bBz7e5tXqVQw3bYtIrtaposqmw2K3YKr+CnVLbigqFp3jkmW9T7HBCMrpkc3vkKXap7dt+NXVLiU1l8r/qkqfYpehTtQonpMSmClXtdclT7Fb0kVS/yC6p4kH7wGtneeXPj+ilhCTFFfn504qcGXRskqR21a8IK664wiv8WteWo0J3THWVQSVyXXLZnSoq9qjoniFnhVEvoeBiv9pcHnmmRbVuRVhxJRRcWqX2aR553FEFljVJ97jktLtUVOyRy/QbwOxL1si/J6iwEgpW1inm9qjQ1qiKFW1SIij/EwkVFnvkPhNVVJIhpwqLPSpM1su7Nir1tKm2uF7GfI8Ke0KqerY9VVvcIM33qFBBVayNSsfDis6rUOGgn604vlWu+I621INoo2qaDg00psV31qY+jx31KlvRqPi0Qtm2VajuFZtceU7l5BXJU+zSoE8EAAAXEX4BjFMJNf2dR55ij+p2hlVX7JGneL3aJMXauuR/rFwuh0vuWTmSpFhbVDLa1LSpSR2GZMRtsudINrtDjtwMITFLMnpSY/mqvXI53KpablNTc0KOWWcV/IeV+kWzVDjPIfUk1fqMX+XfqlHjkajiCam9xaG67xfK4XDL7UoN2d4SlS0RUnBTSLFsm7rOxBQ1ilRoWuJyTEuq44gkuVQTfkk1eUPbh1og//JCueb45HMkddZmV06WTXaHQ/axvHRmZZ1NChR75CmuU3hnXWrL8k/bJLUrklun1fMccsxxKzVt2hWJ2pTYEVRwR0z2rC7Fs+2yZeXI4XDIfsnUtcmms6nnZVepao5DroU18h1sVFu2Uzl761W7oVHRWR4VStJbjaqtLJf/mYg6jsek463qWrZG5XkOudxu5UjS8VZFewy1bQmqaZ8hdcelA+2yzS8c+tIOp2wHD6W2Yy+qV/wZ79B2E1dplXxzXPKVutXVJdmybVKOQw6HfegPowAASCP8AhinHKp8vlWtLa2qf9Cn+pZWtbas1gJJykooHk/1Mvqvf8yyq7BytVY/vlqrn9+t+kWSsi73X+ykQi9GVV7qkrIMdaUvZDS6k3LkOuT6bquO7WpQVV5IZY+E1bFhpWLVu9PHkh4iK6F4+vLFgWNwyfvd1DHUhxpVkzdJdiOe4TpJh1yO1FfGmeTA84frcqeF0eGeSm1uaVVrS718D9artaVVrT9cIEmalIinwmPPwDXnk2Z5VfP4aq1+vF7bm2rkkjTpcu/x4SY1ziqTV9Kk7qRSoyTVZXPKnu3T5rfatf0xn+IrfHr6UJOqNrnVGGlV64t1civ1Q5/EqfSHp/8YsiT7PH/qs/P4Zu1+xivl5Mg4k+H63HucckiSkVQieY3XzWdNYuoCAK6I8Atg3LPlOof8p9m1fLVsq5yaMdejupChSVmSa3mN9N0ilVUH5PcVqW6X5FpUodgGvwLpmwe1/UtAgcVFmuHyqfWhiNbNkVzLq5R4uET+ar/Ktnm15kEpsqJIZY/Waf1zURUuKpK7uEDhf/ArsMyvNemb+fhWVSqyyKmCuRWqP2CTsiTfqnKFF5XIXx1QWXGZgscd8syJ6qWDgw5ehtraJHeeUjczWuhRw/HB7Vfjkq88pnWVAW4eNOrZ5Byy68Cnld+OyDutQAWV9eqwpWsPhuX1+hWoLpNncVAxeeVzN6q2OpC6YVtno+qq/SopnKGix+xqbKqUTT6tLA7KszigwOI6JR6ukft4gyq8ftU+tk4hlcl73wJ5u56Wvzog/6PpG6jlVWm1rU5OV4E8K7bLyErVanpqVLQ4oEBlmYpWRaQ/90i7IulwnbavVcm57tTXu2rkfDQyuPXqin1yN9UqUM0N2wAAmU3o6+vrMxcBwCra29s1ffp05eaaLm68kh5DScMmuy2p0LIqdT2zXVXplVR1GzKybde4wmQoeUayDw4q3UkZNrts/dc8mh8bSSVll11Rrfc1yBv5RWpVWpLRbaS2eEpSZ1AVj+Uo+Kvy1HWOh9er4lc+bX/KtKV0HDp27Jh6e3uVn59vbhoTtm7dqqVLl5rLV2Qkk5LdLh1cr7KNXu1+9uKskdFtk+1at7J3J5XMsg/aHm0o9RL9BfNjyUgastltSm7zqyr5tLZ/J/3h6TFk9NhkS3dte7REkUd2a/VspXZLLKuR8WyjKrlgV1u2bNFDDz1kLgMAPiNWfgHAzOhQcEVAgUfWKf5IcCD4StI1B19Jsg0NvpKUPSjoZnrcGda6RwMKPNoo98b6i8FXSl/b2O+eKtWXtqpxnyEpodAOl9atJfiOV/HmdaqtDqh2q1ubNwyZNdcefJWal0OvC7YNCbqXPjbU8UKtAtUBrUvUKrh80IcnayD4StKCp9bJ9quQEpKMfY2KLW8g+AIAritWfgFY2qda+YUljMeVX1gDK78AcH2w8gsAAAAAsDzCLwAAAADA8gi/AAAAAADLI/wCAAAAACyP8AsAAAAAsDzCLwAAAADA8gi/AAAAAADLI/wCAAAAACyP8AsAAAAAsDzCLwAAAADA8gi/APApJZrXK7g//WBXnQrme+QpTv1Z/6qp8zCElxXo6SOSkhGt8RWpwDVDBXOLVPIvHeauksLyz31aMXP5So48rYJlYXM17SrjdYcV+Np6RXskdTaopLxJSXMfs56ompaVqMDtVMHcAnkeCSuhDgV/ElbC3Fep72HZc5c9AoyYwe9BTA2LCy7OW8/fNWV+b65k0LyKbvGrxF0gp7tABcW1CmcabKdfBf94be/zxc9GBrF/LJB/p7k6IPbzEvl3JCUlFXmkRGv2mXtcKrlnjcrmF2iGq0AF80vUsF/S/qDWN2c6oZgafHWKmMsAgFGH8Atg3Asv88scCZP7wwptCyncHFZHZ6pmHImkavuTkhJq3fILBZtCCu2KyjDiKnyiVa0tqT+r/1KSEVNkW0ih5g4lezKNkZJ4NaTQtrA6zqQetz1RK+OJdh2KHdOhA+3a/m1X+skD4yUMSTIU2xdWaFtEMSM9WE9SHc2hobVkVOFtIYX2RNOFhDp2RZVqTqhjn+k/9BnGiG54Wo6nVsudJemeGjUubNSaPen+3VFFLo43IPFCrRoXbtehaFyHDhxSZK1HtsNhBX/ZqO3bQuroNBTd1aFEd1SRbR1KuP1audCZPr4ORc3ndqYjdR7NYYXNxzwuheU3/zDj4hwJK9z/npjeT2PIeyAZ9io1pudt6/OVcgya/5Ej6W9+hjlxybxKBFX7olfbo4cUjx7SoV3r5MlOd+0f73D6yUYsNd6e2MV5M5zPhnE4MvB5PNyhaPfFrqmaeYzuJtW1VKlhiV2SXd5nVyv5RMPFgJ/Yl/oeDNWmNY8aWtN2SMdih3Sobbv8eYaizUH9Yst2hbZ1KNHZocjhpBL7wooczpH3H/wqSB9f2+GoIkPOw1BsT+o8ws2RS44ZAPCnQ/gFALNXauV5xlBhcaG0o0r1Hala2UalahsrtOagXa68HDnneuQpdMkmKdYSUmhbOgz3tKl2cYM036NCBVWxNpphDCmxqUTlv7arsNgl20epl3cVOtX4xBo1NXcoljRkz7VLPW2qLVyj5HyPCqe0KrJf0pGIIu+5VJgdUsWqNkkJBZdWqX2aRx53VIFlTanjWLBGcbdHhQ6pS5LUrvoVYcX7v362fdDJZxhDMYUPLlDFvIFejm+VK76jLfXgTERP/zySHm9Qn7mFan+qTg3bIoqeMWTLtct+j0tOu0tFxR65cuMKr/CpfG0ktYrcUa/anfHUMS2uU+Pgc+tpU21xvYz5HhX2hFQ15JiRklBwsV9tLo8806JatyKseIb3U0PeA0nJ9lSITYfhxKYKVe11yVPsVvQRv5q6Lx0j47xyFKiwY73qngspcjApI8sue3ZqjvuanfIUu2W0RBSTFNsTUXxaoWzbKlT3SqbPV+bPRnxnberzKCm+s37oynKGMdQSkb5VLnt/nyyv/PkRvZR+3qGmGjX2/0zoIpcKnY1as7ZJ4X0xJXvsstttcuU5lZNXJE+xS/aOepUsqVFj1JCUUHhFvdrTx+d/qlU5892KrahQMCElNpXJ/6pLnmKXok9dZjUcAPAnQfgFME4l1PR3qa2edTvDqiv2yFO8Xm2SYm1d8j9WLpfDJfesHElSrC0qGW1q2tSkDkMy4jbZcySb3SFHrk2SUkG4OB2Gj7cq2mOobUtQTfsMqTueYQypvcWhurVeuRxuudMLvI7luxV7vkL2MxE1VBbJuaJN2v+SYsvWqDzPIde8GlX+paR8n6pK3XKV+uROdklqVyRqU2JHUMEdMdmzuhQ/3qquZetUNcchl9ut1NlcSYYxFFW7rUiFg7s5nLIdPJRaQcur0UvhGqUPf8Bf1iu2d6XciqrxUa+cXwsqkW2XLStHDodDdpskebVmQ43Kv1Uox+Dnms/teKu6+s9/WOdhYZ1NChR75CmuU3hnXWrO/bQt9d7l1mn1PIccc9zp9yPD+2l+D7JTQdiTDsPtLVHZEiEFN4UUy7ap60yGMTLOqwWqj7Vr5WwpurVGXleJgp2GIjsdqvt+oRwOt3zf8cklyVVaJd8cl3ylbnV1Zfp8Zf5sXEmmMWIHz6qoMPX57OeYllRHegu195m46hcNaZbkUFU4psbFdiX3NMhf6FTdK5It2yblOORw2GWT5P67dVr5ULm8s28e8uwF36pSYZ5bvlKHkt3p80if/3DOAwBw/RB+AYxTDlU+n9rqWf+gT/UtrWptWa0FkpSVUDy9jGmktysry67CytVa/fhqrX5+d+o/zFlD/1NtszvkcKTDcJZkn+dP9X98s3Y/4808hhLqSm/p7JdMJmW7p1C+h1aq/tfr5G1pVcyeI+OUeW31UpNmeVXz+Gqtfrxe25tSgTQRv+rVuUNcOkaOcoyuS68FvceZCqw9hpJnzJueJSOZlM3ulvdbNVrXFFRtvE3tkiYN/bYNT5aU6D//nktfa1y5p1KbW1rV2lIv34P1qe3KP1wgSZqUiKfep0Hfo0vfT9N7kA7CF8Nwlkve76bmaX2oUTV5mce4ZF51J5XMssu9sFw1axsVfCSutgM22e0JxS+ZPCbD/GxcUYYxJtkNxS8ZwyFX+ictRjKh5CXTKalkt02OeT5Vfr9eLz3lVWRvTMqapE8zdZU1cP4X/z4BAHwuCL8Axj1brnPIf2pdy1fLtsqpGXM9qgsZmpQluZbXSN8tUll1QH5fkep2Sa5FFYpt8CuQ6QZOeVWq6alR0eKAApVlKloVyTiG99surS8tU2Bpmep2pZ4afaZIzsIyBaoDKluwTs4NVXLlV2mlUSdPZUCBpZ6LfYfyaeWDYXm9fgWqy+RZHFQsv1zlHX55Kv0qW96QvqGVVxXuevkr/SpbvEbpzcuXH0OF8mSFFRl8reK+ViXnulNfH2+QZ2H/2AOSO6vknFUif3VAfq9f7Y+ulE9e+dyNqq0ODNwsbDjyqrTaVienq0CeFdtlZJk7jEc2OdO7DlJ8WvntiLzTClRQWa8OW7p2yft55ffAt6pc4UWp962suEzB4xnGyDSvusOqmjZDJZUBBSpL5N+7UisXSb7HfGp8sEyBar/KKoOXzBMp8+cr02fDVepXx6pUzf/80E9dpjEcC9yKvjx4X7OhtjbJnZd6FHnUqZpLPktR1c93pj671WUqesqp+uUuqdgnd1OtAtVBZboF3eX4VlUqssipgrkVqj+Q+sEYAODzMaGvr6/PXAQAq2hvb9f06dOVm5trbrq8HkNJwya7LanQsip1PbNdVf17crsNGdm24a8A9RgyemyyDX6CeQwjqaTs6W3AA4ykIZu5OCyGjG6bbOmbDekyY2WqDTCN8UqtSlpqtPuHbklJhZbVyHi2UZUXL6a8PCOZlOypraKfRf/xJrf5VZV8Wtu/M2Sj9CWOHTum3t5e5efnm5vGhK1bt2rp0qXm8hX1f691cL3KNnq1+9nUivAl7+cwGN1GaqvvQOWSMTLOocvM52EZzmcjU22wIWMkFCxfqZznG1Vul3R4vSp+5dP2p4Zs4s+s/++Ba/ieZdR/vIpqva9B3sgvUjtMrmDLli166KGHzGUAwGfEyi8AmBkdCq4IKPDIOsUfCQ4EX0m6luCr1NboIcFXGcawZf6P/CWhYtguDTmZxspUG2Aa46/rtc7WqFCnZOxrVGx5w7CCryTZRiD4SoY6XqhVoDqgdYlaBZdfOfiOV/HmdaqtDqh2q1ubNwyOWJfOiasZGnyVcYyMc+gy83lYhvPZyFQbbMgYDlVtKFPrix0ylFBoh0vr1g4j+Cr12f3MwVeSOsNa92hAgUcb5d5Yf9XgCwC4flj5BWBpn2rlF5YwHld+YQ2s/ALA9cHKLwAAAADA8gi/AAAAAADLI/wCAAAAACyP8AsAAAAAsDzCLwAAAADA8gi/ACytt7dX3NR+fOrr69OFCxfM5THjj3/8o7mEcWLChAnmEgBgBBB+AVjabbfdpnfeecdcxjhw6tQp3XbbbebymHHbbbeN6fCOT+fChQtjet4CwGhG+AVgaVOnTlVbW5u5DIvr6+vTiRMn5HQ6zU1jxt13361EImEuw+JOnz6tu+66y1wGAIwAwi8AS7v99ts1Y8YMxeNxcxMs7OTJk5o9e7a5PKbk5+crHA6zbX8c6evrU3Nzs2bNmmVuAgCMAMIvAMsrLCzUv/3bv6mnp8fcBAv68MMP9Z//+Z/68z//c3PTmJKbm6v7779fr732mrkJFtXW1qb58+fr9ttvNzcBAEYA4ReA5U2ePFkLFy7UCy+8oGQyaW6GhcTjce3cuVNf/vKXdfPNN5ubx5wHHnhAZ8+eVWtrq3p7e83NsIienh61tLSot7dXRUVF5mYAwAiZ0Md+KgDjxDvvvKO9e/fqlltu0ezZs5WTk6OsrCxzN4wxhmHo7NmzeuWVV5Sdna0HHnjAcitn+/fvV3t7u770pS+poKBAvb29stls5m4YQ86dO6eenh6dOnVK+/bt01/8xV9o7ty55m4AgBFE+AUw7nR2dqqzs1PJZJK76Y5xNptNPT09mjx5sqZNmyaHw2HuYhlnz55VLBbTO++8o3fffVfZ2dnmLhhDzp49q9zcXE2dOlUul4sfZgDAnwDhFwAAAABgeVzzCwAAAACwPMIvAAAAAMDyCL8AAAAAAMsj/AIAAAAALI/wCwAAAACwPMIvAAAAAMDyCL8AAAAAAMsj/AIAAAAALI/wCwAAAACwPMIvAAAAAMDyCL8AAAAAAMsj/AIAAAAALI/wCwAAAACwPMIvAAAAAMDyCL8AAAAAAMsj/AIAAAAALI/wCwAAAACwPMIvAAAAAMDyCL8AAAAAAMsj/AIAAAAALI/wCwAAAACwPMIvAAAAAMDyCL8AAAAAAMsj/AIAAAAALI/wCwAAAACwPMIvAAAAAMDyCL8AAAAAAMsj/AIAAAAALI/wCwAAAACwvP8ffSZbyDg07j8AAAAASUVORK5CYII=;" vertex="1" parent="1">
          <mxGeometry width="959" height="643" as="geometry" />
        </mxCell>
      </root>
    </mxGraphModel>
  </diagram>
</mxfile>
